<?xml version="1.0" encoding="utf-8"?>
<!-- Generator: Adobe Illustrator 25.2.3, SVG Export Plug-In . SVG Version: 6.00 Build 0)  -->
<svg version="1.1" id="Layer_1" xmlns="http://www.w3.org/2000/svg" xmlns:xlink="http://www.w3.org/1999/xlink" x="0px" y="0px"
	 viewBox="0 0 628 628" style="enable-background:new 0 0 628 628;" xml:space="preserve">
<style type="text/css">
	.st0{fill-rule:evenodd;clip-rule:evenodd;fill:#2D2E2B;fill-opacity:0.5;}
	.st1{fill-rule:evenodd;clip-rule:evenodd;fill:#54B848;fill-opacity:0.85;}
	.st2{fill:#FFFFFF;}
</style>
<rect id="Rectangle" class="st0" width="628" height="628"/>
<circle id="Oval" class="st1" cx="314" cy="304" r="172"/>
<g>
	<path class="st2" d="M281.7,301.5c0,1.8-0.7,3.2-2,4.3c-1.3,1-3.1,1.6-5.4,1.6s-4.2-0.4-5.7-1.1v-3.2c0.9,0.4,1.9,0.8,3,1
		s2,0.4,2.9,0.4c1.3,0,2.3-0.3,2.9-0.8c0.6-0.5,0.9-1.2,0.9-2c0-0.8-0.3-1.4-0.9-1.9s-1.8-1.2-3.6-1.9c-1.9-0.8-3.2-1.6-3.9-2.6
		c-0.8-1-1.1-2.1-1.1-3.5c0-1.7,0.6-3,1.8-4c1.2-1,2.8-1.5,4.9-1.5c2,0,3.9,0.4,5.8,1.3l-1.1,2.7c-1.8-0.8-3.4-1.1-4.9-1.1
		c-1.1,0-1.9,0.2-2.5,0.7c-0.6,0.5-0.8,1.1-0.8,1.9c0,0.5,0.1,1,0.3,1.4c0.2,0.4,0.6,0.7,1.1,1.1c0.5,0.3,1.4,0.8,2.8,1.3
		c1.5,0.6,2.6,1.2,3.3,1.7c0.7,0.5,1.2,1.2,1.5,1.8C281.5,299.8,281.7,300.6,281.7,301.5z"/>
	<path class="st2" d="M303.8,296.8c0,3.3-0.8,5.9-2.5,7.8c-1.7,1.8-4,2.8-7.1,2.8c-3.1,0-5.5-0.9-7.1-2.7c-1.7-1.8-2.5-4.4-2.5-7.8
		c0-3.4,0.8-6,2.5-7.8c1.7-1.8,4-2.7,7.1-2.7c3,0,5.4,0.9,7.1,2.8C303,290.9,303.8,293.5,303.8,296.8z M288.2,296.8
		c0,2.5,0.5,4.4,1.5,5.7c1,1.3,2.5,2,4.5,2c2,0,3.5-0.6,4.5-1.9s1.5-3.2,1.5-5.7c0-2.5-0.5-4.4-1.5-5.7c-1-1.3-2.5-1.9-4.5-1.9
		c-2,0-3.5,0.6-4.5,1.9C288.7,292.4,288.2,294.3,288.2,296.8z"/>
	<path class="st2" d="M311.6,298.9v8.2h-3.3v-20.5h5.8c2.6,0,4.6,0.5,5.9,1.5c1.3,1,1.9,2.5,1.9,4.5c0,2.5-1.3,4.4-4,5.4l5.8,9.1
		h-3.8l-4.9-8.2H311.6z M311.6,296.1h2.3c1.6,0,2.7-0.3,3.4-0.9c0.7-0.6,1-1.4,1-2.6c0-1.2-0.4-2-1.1-2.5s-1.9-0.8-3.4-0.8h-2.2
		V296.1z"/>
	<path class="st2" d="M329.9,298.9v8.2h-3.3v-20.5h5.8c2.6,0,4.6,0.5,5.9,1.5c1.3,1,1.9,2.5,1.9,4.5c0,2.5-1.3,4.4-4,5.4l5.8,9.1
		h-3.8l-4.9-8.2H329.9z M329.9,296.1h2.3c1.6,0,2.7-0.3,3.4-0.9c0.7-0.6,1-1.4,1-2.6c0-1.2-0.4-2-1.1-2.5s-1.9-0.8-3.4-0.8h-2.2
		V296.1z"/>
	<path class="st2" d="M350.6,295.9l4.8-9.3h3.6l-6.8,12.5v7.9h-3.4v-7.8l-6.8-12.6h3.6L350.6,295.9z"/>
	<path class="st2" d="M232.2,331.2c0,3.3-0.8,5.9-2.5,7.8c-1.7,1.8-4,2.8-7.1,2.8c-3.1,0-5.5-0.9-7.1-2.7s-2.5-4.4-2.5-7.8
		c0-3.4,0.8-6,2.5-7.8c1.7-1.8,4-2.7,7.1-2.7c3,0,5.4,0.9,7.1,2.8C231.3,325.3,232.2,327.8,232.2,331.2z M216.6,331.2
		c0,2.5,0.5,4.4,1.5,5.7c1,1.3,2.5,2,4.5,2c2,0,3.5-0.6,4.5-1.9c1-1.3,1.5-3.2,1.5-5.7c0-2.5-0.5-4.4-1.5-5.7
		c-1-1.3-2.5-1.9-4.5-1.9c-2,0-3.5,0.6-4.5,1.9C217.1,326.8,216.6,328.7,216.6,331.2z"/>
	<path class="st2" d="M252.6,321v13.2c0,1.5-0.3,2.8-1,4c-0.6,1.1-1.6,2-2.8,2.6c-1.2,0.6-2.7,0.9-4.4,0.9c-2.5,0-4.5-0.7-5.9-2
		s-2.1-3.2-2.1-5.5V321h3.4v12.9c0,1.7,0.4,2.9,1.2,3.7c0.8,0.8,2,1.2,3.6,1.2c3.2,0,4.7-1.7,4.7-5V321H252.6z"/>
	<path class="st2" d="M264.9,341.4h-3.3v-17.6h-6V321h15.4v2.9h-6V341.4z"/>
	<path class="st2" d="M299.6,331.2c0,3.3-0.8,5.9-2.5,7.8s-4,2.8-7.1,2.8c-3.1,0-5.5-0.9-7.1-2.7c-1.7-1.8-2.5-4.4-2.5-7.8
		c0-3.4,0.8-6,2.5-7.8s4-2.7,7.1-2.7c3,0,5.4,0.9,7.1,2.8C298.8,325.3,299.6,327.8,299.6,331.2z M284,331.2c0,2.5,0.5,4.4,1.5,5.7
		c1,1.3,2.5,2,4.5,2c2,0,3.5-0.6,4.5-1.9c1-1.3,1.5-3.2,1.5-5.7c0-2.5-0.5-4.4-1.5-5.7c-1-1.3-2.5-1.9-4.5-1.9c-2,0-3.5,0.6-4.5,1.9
		C284.5,326.8,284,328.7,284,331.2z"/>
	<path class="st2" d="M307.3,341.4H304V321h11.5v2.8h-8.2v6.4h7.7v2.8h-7.7V341.4z"/>
	<path class="st2" d="M338.5,335.9c0,1.8-0.7,3.2-2,4.3c-1.3,1-3.1,1.6-5.4,1.6s-4.2-0.4-5.7-1.1v-3.2c0.9,0.4,1.9,0.8,3,1
		s2,0.4,2.9,0.4c1.3,0,2.3-0.3,2.9-0.8c0.6-0.5,0.9-1.2,0.9-2c0-0.8-0.3-1.4-0.9-1.9s-1.8-1.2-3.6-1.9c-1.9-0.8-3.2-1.6-3.9-2.6
		c-0.8-1-1.1-2.1-1.1-3.5c0-1.7,0.6-3,1.8-4c1.2-1,2.8-1.5,4.9-1.5c2,0,3.9,0.4,5.8,1.3l-1.1,2.7c-1.8-0.8-3.4-1.1-4.9-1.1
		c-1.1,0-1.9,0.2-2.5,0.7c-0.6,0.5-0.8,1.1-0.8,1.9c0,0.5,0.1,1,0.3,1.4c0.2,0.4,0.6,0.7,1.1,1.1c0.5,0.3,1.4,0.8,2.8,1.3
		c1.5,0.6,2.6,1.2,3.3,1.7s1.2,1.2,1.5,1.8S338.5,335,338.5,335.9z"/>
	<path class="st2" d="M349.5,341.4h-3.3v-17.6h-6V321h15.4v2.9h-6V341.4z"/>
	<path class="st2" d="M376.8,331.2c0,3.3-0.8,5.9-2.5,7.8c-1.7,1.8-4,2.8-7.1,2.8c-3.1,0-5.5-0.9-7.1-2.7c-1.7-1.8-2.5-4.4-2.5-7.8
		c0-3.4,0.8-6,2.5-7.8c1.7-1.8,4-2.7,7.1-2.7c3,0,5.4,0.9,7.1,2.8C376,325.3,376.8,327.8,376.8,331.2z M361.2,331.2
		c0,2.5,0.5,4.4,1.5,5.7c1,1.3,2.5,2,4.5,2c2,0,3.5-0.6,4.5-1.9s1.5-3.2,1.5-5.7c0-2.5-0.5-4.4-1.5-5.7c-1-1.3-2.5-1.9-4.5-1.9
		c-2,0-3.5,0.6-4.5,1.9C361.7,326.8,361.2,328.7,361.2,331.2z"/>
	<path class="st2" d="M389.9,323.6c-1.9,0-3.4,0.7-4.5,2c-1.1,1.4-1.7,3.2-1.7,5.6c0,2.5,0.5,4.4,1.6,5.7c1.1,1.3,2.6,1.9,4.6,1.9
		c0.9,0,1.7-0.1,2.5-0.3c0.8-0.2,1.7-0.4,2.5-0.7v2.9c-1.6,0.6-3.4,0.9-5.5,0.9c-3,0-5.3-0.9-6.9-2.7c-1.6-1.8-2.4-4.4-2.4-7.8
		c0-2.1,0.4-4,1.2-5.6s1.9-2.8,3.4-3.7c1.5-0.8,3.2-1.3,5.2-1.3c2.1,0,4,0.4,5.8,1.3l-1.2,2.8c-0.7-0.3-1.4-0.6-2.2-0.9
		C391.6,323.7,390.8,323.6,389.9,323.6z"/>
	<path class="st2" d="M415,341.4h-3.9l-6.4-9.3l-2,1.6v7.7h-3.3V321h3.3v9.8c0.9-1.1,1.8-2.2,2.7-3.2l5.5-6.5h3.8
		c-3.6,4.2-6.1,7.2-7.7,9L415,341.4z"/>
</g>
</svg>
