<?xml version="1.0" encoding="utf-8"?>
<!-- Generator: Adobe Illustrator 25.2.3, SVG Export Plug-In . SVG Version: 6.00 Build 0)  -->
<svg version="1.1" id="Layer_1" xmlns="http://www.w3.org/2000/svg" xmlns:xlink="http://www.w3.org/1999/xlink" x="0px" y="0px"
	 viewBox="0 0 628 628" style="enable-background:new 0 0 628 628;" xml:space="preserve">
<style type="text/css">
	.st0{opacity:0.5;fill-rule:evenodd;clip-rule:evenodd;fill:#2D2E2B;fill-opacity:0.5;}
	.st1{fill-rule:evenodd;clip-rule:evenodd;fill:#54B848;fill-opacity:0.85;}
	.st2{fill:#FFFFFF;}
</style>
<rect id="Rectangle" class="st0" width="628" height="628"/>
<circle id="Oval" class="st1" cx="314" cy="304" r="172"/>
<g>
	<path class="st2" d="M244.7,322c0,2.8-1,5-3,6.6c-2,1.6-4.8,2.4-8.4,2.4s-6.5-0.6-8.7-1.7v-4.9c1.4,0.7,3,1.2,4.6,1.6
		c1.6,0.4,3.1,0.6,4.5,0.6c2,0,3.5-0.4,4.5-1.2c1-0.8,1.5-1.8,1.5-3.1c0-1.2-0.4-2.2-1.3-3c-0.9-0.8-2.7-1.8-5.5-2.9
		c-2.9-1.2-4.9-2.5-6.1-4s-1.8-3.3-1.8-5.4c0-2.6,0.9-4.7,2.8-6.2c1.9-1.5,4.4-2.3,7.5-2.3c3,0,6,0.7,9,2l-1.6,4.2
		c-2.8-1.2-5.3-1.8-7.5-1.8c-1.7,0-2.9,0.4-3.8,1.1c-0.9,0.7-1.3,1.7-1.3,2.9c0,0.8,0.2,1.5,0.5,2.1c0.3,0.6,0.9,1.1,1.7,1.6
		c0.8,0.5,2.2,1.2,4.3,2c2.3,1,4,1.9,5.1,2.7c1.1,0.8,1.9,1.8,2.4,2.8C244.5,319.3,244.7,320.6,244.7,322z"/>
	<path class="st2" d="M271.4,318.6c0,3.9-1,6.9-3,9.1c-2,2.2-4.8,3.3-8.3,3.3c-2.2,0-4.2-0.5-5.9-1.5c-1.7-1-3-2.4-3.9-4.3
		c-0.9-1.9-1.4-4.1-1.4-6.5c0-3.9,1-6.9,3-9s4.8-3.2,8.4-3.2c3.4,0,6.2,1.1,8.2,3.3S271.4,314.8,271.4,318.6z M254.1,318.6
		c0,5.5,2,8.2,6.1,8.2c4,0,6-2.7,6-8.2c0-5.4-2-8.1-6.1-8.1c-2.1,0-3.7,0.7-4.6,2.1C254.5,313.9,254.1,316,254.1,318.6z"/>
	<path class="st2" d="M282.2,330.5h-5v-33.4h5V330.5z"/>
	<path class="st2" d="M297.4,330.9c-3,0-5.3-1.1-6.9-3.2c-1.7-2.1-2.5-5.2-2.5-9c0-3.9,0.8-6.9,2.5-9.1s4-3.3,7-3.3
		c3.1,0,5.5,1.2,7.1,3.5h0.3c-0.2-1.7-0.4-3.1-0.4-4v-8.7h5.1v33.4h-4l-0.9-3.1h-0.2C302.9,329.7,300.6,330.9,297.4,330.9z
		 M298.8,326.8c2.1,0,3.6-0.6,4.5-1.8c0.9-1.2,1.4-3.1,1.5-5.7v-0.7c0-3-0.5-5.1-1.5-6.4c-1-1.3-2.5-1.9-4.6-1.9
		c-1.8,0-3.1,0.7-4.1,2.2c-1,1.4-1.4,3.5-1.4,6.2c0,2.6,0.5,4.6,1.4,6S296.9,326.8,298.8,326.8z"/>
	<path class="st2" d="M356.7,314.8c0,5.1-1.3,9.1-3.8,11.9c-2.6,2.8-6.2,4.3-10.9,4.3c-4.7,0-8.4-1.4-10.9-4.2
		c-2.5-2.8-3.8-6.8-3.8-12s1.3-9.2,3.8-11.9c2.6-2.8,6.2-4.2,10.9-4.2c4.7,0,8.3,1.4,10.8,4.2S356.7,309.6,356.7,314.8z
		 M332.7,314.8c0,3.9,0.8,6.8,2.3,8.8c1.6,2,3.9,3,6.9,3c3.1,0,5.4-1,6.9-3c1.6-2,2.3-4.9,2.3-8.8c0-3.9-0.8-6.8-2.3-8.8
		c-1.5-2-3.8-3-6.9-3c-3.1,0-5.4,1-7,3C333.5,308,332.7,310.9,332.7,314.8z"/>
	<path class="st2" d="M379.6,330.5l-0.7-3.1h-0.3c-0.7,1.1-1.7,2-3,2.6c-1.3,0.6-2.8,0.9-4.4,0.9c-2.9,0-5-0.7-6.4-2.1
		c-1.4-1.4-2.1-3.6-2.1-6.5v-15.5h5.1v14.6c0,1.8,0.4,3.2,1.1,4.1c0.7,0.9,1.9,1.4,3.5,1.4c2.1,0,3.7-0.6,4.7-1.9s1.5-3.4,1.5-6.4
		v-11.8h5.1v23.8H379.6z"/>
	<path class="st2" d="M399.7,326.8c1.2,0,2.5-0.2,3.7-0.6v3.8c-0.6,0.2-1.3,0.4-2.2,0.6c-0.9,0.2-1.8,0.2-2.7,0.2
		c-4.8,0-7.2-2.5-7.2-7.6v-12.8H388v-2.2l3.5-1.8l1.7-5h3.1v5.3h6.8v3.8h-6.8v12.7c0,1.2,0.3,2.1,0.9,2.7
		C397.9,326.6,398.7,326.8,399.7,326.8z"/>
</g>
</svg>
