<?xml version="1.0" encoding="UTF-8"?><svg id="a" xmlns="http://www.w3.org/2000/svg" viewBox="0 0 32 32"><circle cx="16" cy="16" r="16" fill="#54b848"/><path d="M10.91,8.57c.52,0,1.01.19,1.4.36s.75.22.89.12c.14-.1,1.52-1.03,1.52-1.03,0,0-.77,0-.9-.04-.24-.07-1.57-.59-2.59-.59-2.3,0-2.88,2.89-2.88,2.89,1.12-1.25,2.04-1.71,2.56-1.71ZM9.05,16.54s2.07-1.85,2.95-4.23c.49-1.15.93-1.57.93-1.57,0,0,0-.93-.11-1.04,0,0-1.9.31-3.19,2.4,0,0,.26-2.14,2.51-2.75,0,0-.53-.33-.92-.33s-1.26.07-2.58,1.47c-1.32,1.39-.9,3.3-.77,3.92s.66,1.72,1.17,2.14ZM15.75,15.75c.25-.33.3-.47,0-.69-.3-.22-1.9-1.35-2.47-3.01,0,0-.19,2.38,0,2.95,0,0-.66-1.3-.45-3.04,0,0-1.3,2.28-1.5,2.54-.19.26-.26.25-.26.4s.92,2.97,2.73,3.24c0,0,1.7-2.07,1.95-2.4ZM10.98,16.05s-.89,1.55-.76,3.54c.14,1.99,1.9,2.53,1.9,2.53.71-.34,1.35-1.52,1.39-2.35.04-.82-.04-1.13-.23-1.25-.19-.12-1-.65-1-.65-.23.76-.25,2.1-.25,2.1-.66-1.03-.14-2.44-.14-2.44-.56-.66-.91-1.48-.91-1.48ZM10.43,16.15c.16-.31.05-.44-.11-.29s-1.28,1.13-1.28,1.13c-.15.26-.16,1.33-.16,1.33-.3-.64-.15-1.46-.15-1.46-.38-.37-.57-.81-.57-.81,0,0-.27,1.14-.27,1.88.08,1.75.99,2.91.99,2.91,0,0,.89-.76.93-1.9.05-1.14.45-2.47.61-2.78ZM11.48,22.22c-.21-.15-.63-.51-.63-.51-.07.16-.14.79-.12.84-.17-.36-.09-1.1-.09-1.1-.44-.71-.63-1.41-.63-1.41-.1.2-.19.89-.19,1.61.05,1.69.59,2.87.59,2.87,1.07-.82,1.17-1.57,1.2-1.75.03-.18.09-.4-.12-.55ZM15.83,22.7c-.69-.4-1.52-1.66-1.52-1.66l-.23,3.32c-.33-.45-.4-3.32-.4-3.32-.16.69-1.44,1.7-1.44,1.7-.14,2.71,2.13,5,2.13,5,1.58-2.65,1.47-5.04,1.47-5.04ZM11.18,24.39c-.11.22-.15.19.11.56.26.37,1.26,2.1,1.26,2.1.21-.51.22-.93.22-.93-.47-.84-.91-2.44-.91-2.44,0,0-.58.49-.69.71ZM19.91,8.93c.4-.18.89-.36,1.4-.36s1.44.46,2.56,1.71c0,0-.58-2.89-2.88-2.89-1.02,0-2.35.52-2.59.59-.13.04-.9.04-.9.04,0,0,1.38.93,1.52,1.03.14.1.49.06.89-.12ZM23.12,16.51c.51-.42,1.04-1.52,1.17-2.14.13-.62.55-2.53-.77-3.92-1.32-1.39-2.2-1.47-2.58-1.47s-.92.33-.92.33c2.25.6,2.51,2.75,2.51,2.75-1.28-2.09-3.19-2.4-3.19-2.4-.11.11-.11,1.04-.11,1.04,0,0,.44.42.93,1.57.88,2.38,2.95,4.23,2.95,4.23ZM21.15,14.91c0-.15-.07-.14-.26-.4s-1.5-2.54-1.5-2.54c.21,1.73-.45,3.04-.45,3.04.19-.58,0-2.95,0-2.95-.58,1.66-2.17,2.79-2.47,3.01-.3.22-.25.36,0,.69s1.95,2.4,1.95,2.4c1.81-.27,2.73-3.09,2.73-3.24ZM20.1,22.12s1.76-.54,1.9-2.53c.14-1.99-.76-3.54-.76-3.54,0,0-.34.82-.91,1.48,0,0,.52,1.41-.14,2.44,0,0-.01-1.35-.25-2.1,0,0-.81.52-1,.65-.19.12-.28.43-.23,1.25s.67,2.01,1.39,2.35ZM23.51,16.8s.16.81-.15,1.46c0,0,0-1.07-.16-1.33,0,0-1.12-.98-1.28-1.13s-.28-.02-.11.29c.16.31.57,1.64.61,2.78.05,1.14.93,1.9.93,1.9,0,0,.91-1.16.99-2.91,0-.73-.27-1.88-.27-1.88,0,0-.18.44-.57.81ZM21.58,21.45s.08.74-.09,1.1c.02-.06-.05-.69-.12-.84,0,0-.42.37-.63.51-.21.15-.15.37-.12.55.03.18.13.92,1.2,1.75,0,0,.53-1.17.59-2.87,0-.72-.09-1.41-.19-1.61,0,0-.19.71-.63,1.41ZM20.21,22.74s-1.28-1.02-1.44-1.7c0,0-.07,2.87-.4,3.32l-.23-3.32s-.84,1.26-1.52,1.66c0,0-.11,2.39,1.47,5.04,0,0,2.27-2.29,2.13-5ZM20.58,23.68s-.44,1.61-.91,2.44c0,0,.01.43.22.93,0,0,1-1.73,1.26-2.1.26-.37.22-.34.11-.56s-.69-.71-.69-.71ZM15.69,5.91c0,.6-.05,1.75-.05,1.75.39.01.59-.09.59-.09,0,0,.07-1.36.05-2.92-.02-1.56-.13-2.25-.32-2.23-.3.03-.54.48-.56.62s0,.41,0,.74.3,1.54.3,2.13ZM15.99,11.41c-.22-.49-.33-3.2-.33-3.2-1.23.24-2.38,1.32-2.38,1.32.73,4.85,2.89,5.16,2.89,5.16,2.6-1.36,2.67-5.33,2.67-5.33-1.19-1.01-2.36-1.15-2.36-1.15-.55.44-.49,3.2-.49,3.2ZM16.17,27.3c-.16-.23-.09-2.98-.09-2.98-.07,1.02-1.11,3.08-1.11,3.08.48,1.4,1.32,2.18,1.32,2.18.47-.43,1.19-2.14,1.19-2.14-.44-.73-1.15-3.12-1.15-3.12.22,1.11-.16,2.98-.16,2.98ZM16.17,22.36h.05c2.37-1.68,1.97-3.89,1.97-3.89-.36-.29-1.77-1.93-1.77-1.93.07.91-.12,2.69-.12,2.69-.15-.37-.41-2.69-.41-2.69-.34.54-1.7,1.92-1.7,1.92-.16,2.71,1.99,3.9,1.99,3.9Z" fill="#fff"/></svg>
