<?xml version="1.0" encoding="UTF-8"?>
<svg id="a" xmlns="http://www.w3.org/2000/svg" version="1.1" viewBox="0 0 180 180">
  <!-- Generator: Adobe Illustrator 29.7.1, SVG Export Plug-In . SVG Version: 2.1.1 Build 8)  -->
  <rect width="180" height="180" fill="none"/>
  <path d="M61.4,49c2.8,0,5.6,1,7.8,2s4.1,1.2,4.9.7c.8-.6,8.4-5.7,8.4-5.7,0,0-4.3,0-5-.2-1.3-.4-8.7-3.3-14.3-3.3-12.7,0-15.9,16-15.9,16,6.2-6.9,11.3-9.4,14.1-9.4h0ZM51.2,93s11.4-10.2,16.3-23.4c2.7-6.4,5.2-8.7,5.2-8.7,0,0,0-5.2-.6-5.8,0,0-10.5,1.7-17.6,13.2,0,0,1.4-11.8,13.8-15.2,0,0-2.9-1.8-5.1-1.8s-7,.4-14.3,8.1-5,18.2-4.2,21.6,3.6,9.5,6.5,11.8h0ZM88.2,88.6c1.4-1.8,1.7-2.6,0-3.8s-10.5-7.4-13.7-16.6c0,0-1.1,13.1,0,16.3,0,0-3.6-7.2-2.5-16.8,0,0-7.2,12.6-8.3,14-1.1,1.4-1.4,1.4-1.4,2.2s5.1,16.4,15.1,17.9c0,0,9.4-11.4,10.8-13.3h0ZM61.8,90.3s-4.9,8.6-4.2,19.6,10.5,14,10.5,14c3.9-1.9,7.4-8.4,7.7-13s-.2-6.2-1.3-6.9-5.5-3.6-5.5-3.6c-1.3,4.2-1.4,11.6-1.4,11.6-3.6-5.7-.8-13.5-.8-13.5-3.1-3.6-5-8.2-5-8.2h0ZM58.8,90.8c.9-1.7.2-2.4-.6-1.6s-7.1,6.2-7.1,6.2c-.8,1.4-.9,7.3-.9,7.3-1.7-3.5-.8-8-.8-8-2.1-2-3.1-4.4-3.1-4.4,0,0-1.5,6.3-1.5,10.4.5,9.7,5.5,16.1,5.5,16.1,0,0,4.9-4.2,5.2-10.5.2-6.3,2.5-13.7,3.4-15.4ZM64.6,124.4c-1.2-.8-3.5-2.8-3.5-2.8-.4.9-.8,4.3-.7,4.7-1-2-.5-6.1-.5-6.1-2.4-3.9-3.5-7.8-3.5-7.8-.6,1.1-1.1,4.9-1.1,8.9.3,9.3,3.2,15.8,3.2,15.8,5.9-4.6,6.5-8.6,6.6-9.7.2-1,.5-2.2-.7-3h0ZM88.6,127c-3.8-2.2-8.4-9.2-8.4-9.2l-1.3,18.3c-1.8-2.5-2.2-18.3-2.2-18.3-.9,3.8-8,9.4-8,9.4-.8,14.9,11.8,27.6,11.8,27.6,8.7-14.6,8.1-27.8,8.1-27.8h0ZM62.9,136.3c-.6,1.2-.8,1.1.6,3.1s7,11.6,7,11.6c1.1-2.8,1.2-5.2,1.2-5.2-2.6-4.6-5-13.5-5-13.5,0,0-3.2,2.7-3.8,3.9h0ZM111.1,51c2.2-1,4.9-2,7.8-2s7.9,2.5,14.1,9.4c0,0-3.2-16-15.9-16s-13,2.9-14.3,3.3c-.7.2-5,.2-5,.2,0,0,7.6,5.1,8.4,5.7.8.6,2.7.3,4.9-.7h0ZM128.9,92.8c2.8-2.3,5.8-8.4,6.5-11.8s3-14-4.2-21.6c-7.3-7.7-12.1-8.1-14.3-8.1s-5.1,1.8-5.1,1.8c12.4,3.3,13.8,15.2,13.8,15.2-7.1-11.5-17.6-13.2-17.6-13.2-.6.6-.6,5.8-.6,5.8,0,0,2.4,2.3,5.2,8.7,4.8,13.2,16.3,23.4,16.3,23.4h0ZM118,84c0-.8-.4-.8-1.4-2.2s-8.3-14-8.3-14c1.1,9.6-2.5,16.8-2.5,16.8,1.1-3.2,0-16.3,0-16.3-3.2,9.2-12,15.4-13.7,16.6-1.7,1.2-1.4,2,0,3.8s10.8,13.3,10.8,13.3c10-1.5,15.1-17.1,15.1-17.9h0ZM112.2,123.8s9.7-3,10.5-14-4.2-19.6-4.2-19.6c0,0-1.9,4.6-5,8.2,0,0,2.9,7.8-.8,13.5,0,0,0-7.4-1.4-11.6,0,0-4.5,2.9-5.5,3.6-1.1.7-1.5,2.3-1.3,6.9.2,4.6,3.7,11.1,7.7,13h0ZM131,94.4s.9,4.5-.8,8c0,0,0-5.9-.9-7.3,0,0-6.2-5.4-7.1-6.2s-1.5,0-.6,1.6c.9,1.7,3.1,9.1,3.4,15.4.2,6.3,5.2,10.5,5.2,10.5,0,0,5-6.4,5.5-16.1,0-4.1-1.5-10.4-1.5-10.4,0,0-1,2.4-3.1,4.5ZM120.4,120.1s.5,4.1-.5,6.1c.1-.3-.2-3.8-.7-4.7,0,0-2.3,2-3.5,2.8-1.2.8-.8,2-.7,3,.2,1,.7,5.1,6.6,9.7,0,0,2.9-6.5,3.2-15.8,0-4-.5-7.8-1.1-8.9,0,0-1.1,3.9-3.5,7.8h0ZM112.8,127.2s-7.1-5.6-8-9.4c0,0-.4,15.9-2.2,18.4l-1.3-18.3s-4.6,7-8.4,9.2c0,0-.6,13.2,8.1,27.8,0,0,12.5-12.7,11.8-27.6h0ZM114.8,132.4s-2.4,8.9-5,13.5c0,0,0,2.4,1.2,5.2,0,0,5.5-9.6,7-11.6,1.4-2.1,1.2-1.9.6-3.1s-3.8-3.9-3.8-3.9h0ZM87.8,34.3c0,3.3-.3,9.6-.3,9.6,2.1,0,3.2-.5,3.2-.5,0,0,.4-7.5.3-16.1-.1-8.6-.7-12.4-1.8-12.3-1.7.2-3,2.7-3.1,3.4s0,2.2,0,4.1,1.7,8.5,1.7,11.8h0ZM89.5,64.7c-1.2-2.7-1.8-17.7-1.8-17.7-6.8,1.3-13.2,7.3-13.2,7.3,4.1,26.8,16,28.5,16,28.5,14.4-7.5,14.8-29.4,14.8-29.4-6.6-5.6-13.1-6.4-13.1-6.4-3,2.4-2.7,17.7-2.7,17.7ZM90.5,152.4c-.9-1.3-.5-16.5-.5-16.5-.4,5.6-6.1,17-6.1,17,2.7,7.7,7.3,12.1,7.3,12.1,2.6-2.4,6.6-11.8,6.6-11.8-2.4-4-6.4-17.2-6.4-17.2,1.2,6.1-.9,16.5-.9,16.5h0ZM90.5,125.1h.3c13.1-9.2,10.9-21.5,10.9-21.5-2-1.6-9.8-10.7-9.8-10.7.4,5-.7,14.8-.7,14.8-.8-2.1-2.3-14.8-2.3-14.8-1.9,3-9.4,10.6-9.4,10.6-.9,14.9,11,21.5,11,21.5h0Z" fill="#fff"/>
</svg>