<?xml version="1.0" encoding="UTF-8"?><svg id="a" xmlns="http://www.w3.org/2000/svg" viewBox="0 0 180 180"><rect width="180" height="180" fill="none"/><path d="M61.42,48.96c2.85,0,5.57,1.02,7.75,2.01s4.12,1.24,4.91.66c.78-.58,8.41-5.69,8.41-5.69,0,0-4.28-.05-4.99-.25-1.35-.38-8.66-3.26-14.31-3.26-12.7,0-15.89,15.95-15.89,15.95,6.19-6.89,11.27-9.43,14.12-9.43ZM51.15,92.97s11.43-10.21,16.28-23.36c2.73-6.37,5.16-8.7,5.16-8.7,0,0,0-5.16-.61-5.76,0,0-10.52,1.72-17.6,13.25,0,0,1.42-11.83,13.85-15.17,0,0-2.93-1.82-5.06-1.82s-6.98.4-14.26,8.09c-7.28,7.69-4.96,18.2-4.25,21.64s3.64,9.51,6.47,11.83ZM88.16,88.62c1.37-1.82,1.67-2.58,0-3.79-1.67-1.21-10.47-7.43-13.65-16.61,0,0-1.06,13.12,0,16.31,0,0-3.64-7.21-2.5-16.76,0,0-7.21,12.59-8.27,14.03-1.06,1.44-1.44,1.37-1.44,2.2s5.08,16.38,15.09,17.9c0,0,9.4-11.45,10.77-13.27ZM61.84,90.29s-4.93,8.57-4.17,19.57c.76,11,10.47,13.96,10.47,13.96,3.94-1.9,7.43-8.42,7.66-12.97.23-4.55-.23-6.22-1.29-6.9-1.06-.68-5.54-3.56-5.54-3.56-1.29,4.17-1.37,11.6-1.37,11.6-3.64-5.69-.76-13.5-.76-13.5-3.11-3.64-5.01-8.19-5.01-8.19ZM58.78,90.85c.91-1.72.25-2.43-.61-1.62s-7.07,6.22-7.07,6.22c-.81,1.42-.86,7.33-.86,7.33-1.67-3.54-.81-8.04-.81-8.04-2.12-2.02-3.14-4.45-3.14-4.45,0,0-1.52,6.32-1.52,10.37.46,9.66,5.46,16.08,5.46,16.08,0,0,4.9-4.2,5.16-10.52.25-6.32,2.48-13.65,3.39-15.37ZM64.6,124.37c-1.16-.81-3.49-2.83-3.49-2.83-.4.86-.79,4.34-.66,4.65-.96-1.97-.51-6.07-.51-6.07-2.43-3.89-3.49-7.79-3.49-7.79-.56,1.11-1.06,4.9-1.06,8.9.3,9.35,3.24,15.83,3.24,15.83,5.92-4.55,6.47-8.65,6.62-9.66.15-1.01.51-2.22-.66-3.03ZM88.62,127c-3.79-2.2-8.42-9.18-8.42-9.18l-1.29,18.35c-1.82-2.5-2.2-18.35-2.2-18.35-.91,3.79-7.96,9.41-7.96,9.41-.76,14.94,11.76,27.61,11.76,27.61,8.72-14.64,8.12-27.84,8.12-27.84ZM62.9,136.33c-.61,1.21-.83,1.06.61,3.11,1.44,2.05,6.98,11.6,6.98,11.6,1.14-2.81,1.21-5.16,1.21-5.16-2.58-4.63-5.01-13.5-5.01-13.5,0,0-3.19,2.73-3.79,3.94ZM111.13,50.97c2.19-.99,4.91-2.01,7.75-2.01s7.93,2.54,14.12,9.43c0,0-3.19-15.95-15.89-15.95-5.65,0-12.97,2.88-14.31,3.26-.72.2-4.99.25-4.99.25,0,0,7.63,5.11,8.41,5.69.78.58,2.72.33,4.91-.66ZM128.85,92.82c2.83-2.33,5.76-8.39,6.47-11.83.71-3.44,3.03-13.96-4.25-21.64-7.28-7.69-12.14-8.09-14.26-8.09s-5.06,1.82-5.06,1.82c12.44,3.34,13.85,15.17,13.85,15.17-7.08-11.53-17.6-13.25-17.6-13.25-.61.61-.61,5.76-.61,5.76,0,0,2.43,2.33,5.16,8.7,4.85,13.15,16.28,23.36,16.28,23.36ZM118.01,84c0-.83-.38-.76-1.44-2.2s-8.27-14.03-8.27-14.03c1.14,9.56-2.5,16.76-2.5,16.76,1.06-3.19,0-16.31,0-16.31-3.19,9.18-11.98,15.4-13.65,16.61-1.67,1.21-1.37,1.97,0,3.79s10.77,13.27,10.77,13.27c10.01-1.52,15.09-17.07,15.09-17.9ZM112.17,123.82s9.71-2.96,10.47-13.96c.76-11-4.17-19.57-4.17-19.57,0,0-1.9,4.55-5.01,8.19,0,0,2.88,7.81-.76,13.5,0,0-.08-7.43-1.37-11.6,0,0-4.47,2.88-5.54,3.56-1.06.68-1.52,2.35-1.29,6.9.23,4.55,3.72,11.07,7.66,12.97ZM131.03,94.44s.86,4.5-.81,8.04c0,0-.05-5.92-.86-7.33,0,0-6.21-5.41-7.07-6.22s-1.52-.1-.61,1.62c.91,1.72,3.13,9.05,3.39,15.37.25,6.32,5.16,10.52,5.16,10.52,0,0,5.01-6.42,5.46-16.08,0-4.05-1.52-10.37-1.52-10.37,0,0-1.01,2.43-3.14,4.45ZM120.36,120.12s.46,4.1-.51,6.07c.13-.31-.25-3.79-.66-4.65,0,0-2.33,2.02-3.49,2.83-1.16.81-.81,2.02-.66,3.03.15,1.01.71,5.11,6.62,9.66,0,0,2.93-6.47,3.24-15.83,0-3.99-.51-7.79-1.06-8.9,0,0-1.06,3.89-3.49,7.79ZM112.77,127.23s-7.05-5.61-7.96-9.41c0,0-.38,15.85-2.2,18.35l-1.29-18.35s-4.63,6.98-8.42,9.18c0,0-.61,13.2,8.12,27.84,0,0,12.51-12.67,11.76-27.61ZM114.82,132.39s-2.43,8.87-5.01,13.5c0,0,.08,2.35,1.21,5.16,0,0,5.54-9.56,6.98-11.6,1.44-2.05,1.21-1.9.61-3.11s-3.79-3.94-3.79-3.94ZM87.85,34.28c0,3.29-.29,9.64-.29,9.64,2.14.06,3.23-.52,3.23-.52,0,0,.4-7.5.29-16.11-.12-8.6-.7-12.41-1.79-12.3-1.67.17-3,2.66-3.12,3.41s0,2.25,0,4.1,1.67,8.49,1.67,11.78ZM89.48,64.65c-1.21-2.73-1.82-17.7-1.82-17.7-6.78,1.31-13.15,7.28-13.15,7.28,4.05,26.8,15.98,28.52,15.98,28.52,14.36-7.48,14.77-29.43,14.77-29.43-6.57-5.56-13.05-6.37-13.05-6.37-3.03,2.43-2.73,17.7-2.73,17.7ZM90.49,152.41c-.86-1.29-.5-16.46-.5-16.46-.38,5.61-6.14,16.99-6.14,16.99,2.65,7.74,7.28,12.06,7.28,12.06,2.58-2.35,6.6-11.83,6.6-11.83-2.43-4.02-6.37-17.22-6.37-17.22,1.21,6.14-.86,16.46-.86,16.46ZM90.49,125.1h.29c13.08-9.25,10.88-21.46,10.88-21.46-1.97-1.59-9.78-10.67-9.78-10.67.38,5.03-.68,14.84-.68,14.84-.83-2.05-2.28-14.84-2.28-14.84-1.9,2.98-9.41,10.59-9.41,10.59-.91,14.94,10.97,21.54,10.97,21.54Z" fill="#9da1a6"/></svg>