<?xml version="1.0" encoding="UTF-8"?>
<svg id="Layer_1" xmlns="http://www.w3.org/2000/svg" version="1.1" viewBox="0 0 400 189.5">
  <!-- Generator: Adobe Illustrator 29.7.1, SVG Export Plug-In . SVG Version: 2.1.1 Build 8)  -->
  <path d="M173.5,31.8c2.7,0,5.2,1,7.3,1.9s3.9,1.2,4.6.6c.7-.5,7.9-5.3,7.9-5.3,0,0-4,0-4.7-.2-1.3-.4-8.1-3.1-13.4-3.1-11.9,0-14.9,14.9-14.9,14.9,5.8-6.5,10.6-8.8,13.2-8.8ZM163.8,73.1s10.7-9.6,15.3-21.9c2.6-6,4.8-8.1,4.8-8.1,0,0,0-4.8-.6-5.4,0,0-9.9,1.6-16.5,12.4,0,0,1.3-11.1,13-14.2,0,0-2.7-1.7-4.7-1.7s-6.5.4-13.4,7.6c-6.8,7.2-4.6,17.1-4,20.3s3.4,8.9,6.1,11.1ZM198.5,69c1.3-1.7,1.6-2.4,0-3.6-1.6-1.1-9.8-7-12.8-15.6,0,0-1,12.3,0,15.3,0,0-3.4-6.8-2.3-15.7,0,0-6.8,11.8-7.7,13.1-1,1.4-1.4,1.3-1.4,2.1s4.8,15.3,14.1,16.8c0,0,8.8-10.7,10.1-12.4ZM173.9,70.5s-4.6,8-3.9,18.3c.7,10.3,9.8,13.1,9.8,13.1,3.7-1.8,7-7.9,7.2-12.2.2-4.3-.2-5.8-1.2-6.5-1-.6-5.2-3.3-5.2-3.3-1.2,3.9-1.3,10.9-1.3,10.9-3.4-5.3-.7-12.6-.7-12.6-2.9-3.4-4.7-7.7-4.7-7.7ZM171,71.1c.9-1.6.2-2.3-.6-1.5s-6.6,5.8-6.6,5.8c-.8,1.3-.8,6.9-.8,6.9-1.6-3.3-.8-7.5-.8-7.5-2-1.9-2.9-4.2-2.9-4.2,0,0-1.4,5.9-1.4,9.7.4,9,5.1,15.1,5.1,15.1,0,0,4.6-3.9,4.8-9.9.2-5.9,2.3-12.8,3.2-14.4ZM176.4,102.5c-1.1-.8-3.3-2.7-3.3-2.7-.4.8-.7,4.1-.6,4.4-.9-1.8-.5-5.7-.5-5.7-2.3-3.6-3.3-7.3-3.3-7.3-.5,1-1,4.6-1,8.3.3,8.8,3,14.8,3,14.8,5.5-4.3,6.1-8.1,6.2-9,.1-.9.5-2.1-.6-2.8ZM198.9,104.9c-3.6-2.1-7.9-8.6-7.9-8.6l-1.2,17.2c-1.7-2.3-2.1-17.2-2.1-17.2-.9,3.6-7.5,8.8-7.5,8.8-.7,14,11,25.9,11,25.9,8.2-13.7,7.6-26.1,7.6-26.1ZM174.8,113.7c-.6,1.1-.8,1,.6,2.9,1.4,1.9,6.5,10.9,6.5,10.9,1.1-2.6,1.1-4.8,1.1-4.8-2.4-4.3-4.7-12.6-4.7-12.6,0,0-3,2.6-3.6,3.7ZM220,33.7c2-.9,4.6-1.9,7.3-1.9s7.4,2.4,13.2,8.8c0,0-3-14.9-14.9-14.9s-12.1,2.7-13.4,3.1c-.7.2-4.7.2-4.7.2,0,0,7.1,4.8,7.9,5.3.7.5,2.6.3,4.6-.6ZM236.6,72.9c2.7-2.2,5.4-7.9,6.1-11.1.7-3.2,2.8-13.1-4-20.3-6.8-7.2-11.4-7.6-13.4-7.6s-4.7,1.7-4.7,1.7c11.7,3.1,13,14.2,13,14.2-6.6-10.8-16.5-12.4-16.5-12.4-.6.6-.6,5.4-.6,5.4,0,0,2.3,2.2,4.8,8.1,4.5,12.3,15.3,21.9,15.3,21.9ZM226.5,64.6c0-.8-.4-.7-1.4-2.1s-7.7-13.1-7.7-13.1c1.1,9-2.3,15.7-2.3,15.7,1-3,0-15.3,0-15.3-3,8.6-11.2,14.4-12.8,15.6-1.6,1.1-1.3,1.8,0,3.6s10.1,12.4,10.1,12.4c9.4-1.4,14.1-16,14.1-16.8ZM221,102s9.1-2.8,9.8-13.1c.7-10.3-3.9-18.3-3.9-18.3,0,0-1.8,4.3-4.7,7.7,0,0,2.7,7.3-.7,12.6,0,0,0-7-1.3-10.9,0,0-4.2,2.7-5.2,3.3-1,.6-1.4,2.2-1.2,6.5s3.5,10.4,7.2,12.2ZM238.7,74.4s.8,4.2-.8,7.5c0,0,0-5.5-.8-6.9,0,0-5.8-5.1-6.6-5.8s-1.4,0-.6,1.5c.9,1.6,2.9,8.5,3.2,14.4.2,5.9,4.8,9.9,4.8,9.9,0,0,4.7-6,5.1-15.1,0-3.8-1.4-9.7-1.4-9.7,0,0-.9,2.3-2.9,4.2ZM228.7,98.5s.4,3.8-.5,5.7c.1-.3-.2-3.6-.6-4.4,0,0-2.2,1.9-3.3,2.7-1.1.8-.8,1.9-.6,2.8.1.9.7,4.8,6.2,9,0,0,2.7-6.1,3-14.8,0-3.7-.5-7.3-1-8.3,0,0-1,3.6-3.3,7.3ZM221.6,105.2s-6.6-5.3-7.5-8.8c0,0-.4,14.9-2.1,17.2l-1.2-17.2s-4.3,6.5-7.9,8.6c0,0-.6,12.4,7.6,26.1,0,0,11.7-11.9,11-25.9ZM223.5,110s-2.3,8.3-4.7,12.6c0,0,0,2.2,1.1,4.8,0,0,5.2-9,6.5-10.9,1.4-1.9,1.1-1.8.6-2.9s-3.6-3.7-3.6-3.7ZM198.2,18.1c0,3.1-.3,9-.3,9,2,0,3-.5,3-.5,0,0,.4-7,.3-15.1-.1-8.1-.7-11.6-1.7-11.5-1.6.2-2.8,2.5-2.9,3.2s0,2.1,0,3.8,1.6,8,1.6,11ZM199.7,46.5c-1.1-2.6-1.7-16.6-1.7-16.6-6.3,1.2-12.3,6.8-12.3,6.8,3.8,25.1,15,26.7,15,26.7,13.5-7,13.8-27.6,13.8-27.6-6.2-5.2-12.2-6-12.2-6-2.8,2.3-2.6,16.6-2.6,16.6ZM200.7,128.7c-.8-1.2-.5-15.4-.5-15.4-.4,5.3-5.8,15.9-5.8,15.9,2.5,7.2,6.8,11.3,6.8,11.3,2.4-2.2,6.2-11.1,6.2-11.1-2.3-3.8-6-16.1-6-16.1,1.1,5.8-.8,15.4-.8,15.4ZM200.7,103.2h.3c12.3-8.7,10.2-20.1,10.2-20.1-1.8-1.5-9.2-10-9.2-10,.4,4.7-.6,13.9-.6,13.9-.8-1.9-2.1-13.9-2.1-13.9-1.8,2.8-8.8,9.9-8.8,9.9-.9,14,10.3,20.2,10.3,20.2Z" fill="#fff"/>
  <path d="M.2,189.5h5.7v-10.2h14.8v-5.7H5.9v-4.6h18.4v-5.7H.2v26.1ZM52.8,163.4h-15.4c-1.5,0-2.8.5-3.8,1.6-1,1-1.6,2.3-1.6,3.8v15.4c0,1.5.5,2.8,1.6,3.8,1,1,2.3,1.6,3.8,1.6h15.4c1.5,0,2.7-.5,3.8-1.6,1.1-1.1,1.6-2.3,1.6-3.8v-15.4c0-1.5-.5-2.7-1.6-3.8-1.1-1.1-2.3-1.6-3.8-1.6ZM52.5,183.9h-14.8v-14.8h14.8v14.8ZM73.6,163.4h-5.6v26.1h26.1v-5.7h-20.5v-20.5ZM116.1,169.8l-3.3,3.9h-5.1v-10.2h-5.7v26.1h5.7v-10.2h5.1l8.6,10.2h5.9v-2l-9.3-11.1,9.3-11.1v-2h-5.9l-5.3,6.3ZM136.7,189.5h5.7v-26.1h-5.7v26.1ZM170.9,180.8l-14.6-17.4h-5.8v26.1h5.6v-17.5l14.7,17.5h5.8v-26.1h-5.7v17.4ZM207.1,163.4h-15.3c-1.5,0-2.8.5-3.8,1.6-1,1-1.6,2.3-1.6,3.8v15.4c0,1.5.5,2.8,1.6,3.8,1,1,2.3,1.6,3.8,1.6h15.3c1.5,0,2.8-.5,3.8-1.6,1.1-1.1,1.6-2.3,1.6-3.8v-9.9h-11.3v5.7h5.7v3.9h-14.8v-14.8h14.8v2.2h5.7v-2.5c0-1.5-.5-2.7-1.6-3.8-1.1-1.1-2.3-1.6-3.8-1.6ZM222.4,189.5h24.1v-5.7h-18.4v-4.6h14.8v-5.7h-14.8v-4.6h18.4v-5.7h-24.1v26.1ZM281.1,173.7v-4.9c0-1.5-.5-2.7-1.6-3.8-1.1-1.1-2.3-1.6-3.8-1.6h-19.7v26.1h20.7c1.5,0,2.8-.5,3.8-1.6,1.1-1.1,1.6-2.3,1.6-3.8v-5.4c0-1.2-.4-2.3-1.3-3.4.2-.4.3-1,.3-1.7ZM261.6,169.1h13.8v4.3h-13.8v-4.3ZM276.4,183.9h-14.8v-4.8h14.8v4.8ZM312.5,163.4h-20.7v26.1h5.6v-8.4s0,0,.1,0c0-.1,0-.2-.1-.2h7.5s7.2,8.6,7.2,8.6h5.8v-1.9l-5.7-6.7h.3c1.5,0,2.7-.5,3.8-1.6,1.1-1.1,1.6-2.3,1.6-3.8v-6.7c0-1.5-.5-2.7-1.6-3.8-1.1-1.1-2.3-1.6-3.8-1.6ZM312.2,175.3h-14.8v-6.2h14.8v6.2ZM327.6,189.5h24.1v-5.7h-18.4v-4.6h14.8v-5.7h-14.8v-4.6h18.4v-5.7h-24.1v26.1ZM394.3,163.4l-4.8,13.1-.9,2.4-5.7-15.5h-5.2l-4.8,13.1-.9,2.4-5.7-15.5h-6l9.5,26.1h4.3l3.8-10.4,2.3-6.4,6.2,16.8h4.3l9.5-26.1h-5.9Z" fill="#fff"/>
</svg>