<?xml version="1.0" encoding="UTF-8"?>
<svg id="Layer_1" xmlns="http://www.w3.org/2000/svg" version="1.1" viewBox="0 0 240 113.7">
  <!-- Generator: Adobe Illustrator 29.7.1, SVG Export Plug-In . SVG Version: 2.1.1 Build 8)  -->
  <path d="M103.6,19.1c1.6,0,3.1.6,4.4,1.1s2.3.7,2.8.4c.4-.3,4.7-3.2,4.7-3.2,0,0-2.4,0-2.8-.1-.8-.2-4.9-1.8-8-1.8-7.1,0-8.9,9-8.9,9,3.5-3.9,6.3-5.3,7.9-5.3ZM97.9,43.8s6.4-5.7,9.2-13.1c1.5-3.6,2.9-4.9,2.9-4.9,0,0,0-2.9-.3-3.2,0,0-5.9,1-9.9,7.4,0,0,.8-6.7,7.8-8.5,0,0-1.6-1-2.8-1s-3.9.2-8,4.5c-4.1,4.3-2.8,10.2-2.4,12.2s2,5.3,3.6,6.7ZM118.7,41.4c.8-1,.9-1.4,0-2.1-.9-.7-5.9-4.2-7.7-9.3,0,0-.6,7.4,0,9.2,0,0-2-4.1-1.4-9.4,0,0-4.1,7.1-4.6,7.9-.6.8-.8.8-.8,1.2s2.9,9.2,8.5,10.1c0,0,5.3-6.4,6.1-7.5ZM103.9,42.3s-2.8,4.8-2.3,11c.4,6.2,5.9,7.8,5.9,7.8,2.2-1.1,4.2-4.7,4.3-7.3.1-2.6-.1-3.5-.7-3.9-.6-.4-3.1-2-3.1-2-.7,2.3-.8,6.5-.8,6.5-2-3.2-.4-7.6-.4-7.6-1.7-2-2.8-4.6-2.8-4.6ZM102.1,42.6c.5-1,.1-1.4-.3-.9s-4,3.5-4,3.5c-.5.8-.5,4.1-.5,4.1-.9-2-.5-4.5-.5-4.5-1.2-1.1-1.8-2.5-1.8-2.5,0,0-.9,3.6-.9,5.8.3,5.4,3.1,9,3.1,9,0,0,2.8-2.4,2.9-5.9.1-3.6,1.4-7.7,1.9-8.6ZM105.4,61.5c-.7-.5-2-1.6-2-1.6-.2.5-.4,2.4-.4,2.6-.5-1.1-.3-3.4-.3-3.4-1.4-2.2-2-4.4-2-4.4-.3.6-.6,2.8-.6,5,.2,5.3,1.8,8.9,1.8,8.9,3.3-2.6,3.6-4.9,3.7-5.4,0-.6.3-1.3-.4-1.7ZM118.9,63c-2.1-1.2-4.7-5.2-4.7-5.2l-.7,10.3c-1-1.4-1.2-10.3-1.2-10.3-.5,2.1-4.5,5.3-4.5,5.3-.4,8.4,6.6,15.5,6.6,15.5,4.9-8.2,4.6-15.6,4.6-15.6ZM104.5,68.2c-.3.7-.5.6.3,1.7.8,1.2,3.9,6.5,3.9,6.5.6-1.6.7-2.9.7-2.9-1.4-2.6-2.8-7.6-2.8-7.6,0,0-1.8,1.5-2.1,2.2ZM131.6,20.2c1.2-.6,2.8-1.1,4.4-1.1s4.5,1.4,7.9,5.3c0,0-1.8-9-8.9-9s-7.3,1.6-8,1.8c-.4.1-2.8.1-2.8.1,0,0,4.3,2.9,4.7,3.2.4.3,1.5.2,2.8-.4ZM141.5,43.7c1.6-1.3,3.2-4.7,3.6-6.7.4-1.9,1.7-7.8-2.4-12.2-4.1-4.3-6.8-4.5-8-4.5s-2.8,1-2.8,1c7,1.9,7.8,8.5,7.8,8.5-4-6.5-9.9-7.4-9.9-7.4-.3.3-.3,3.2-.3,3.2,0,0,1.4,1.3,2.9,4.9,2.7,7.4,9.2,13.1,9.2,13.1ZM135.4,38.8c0-.5-.2-.4-.8-1.2s-4.6-7.9-4.6-7.9c.6,5.4-1.4,9.4-1.4,9.4.6-1.8,0-9.2,0-9.2-1.8,5.2-6.7,8.7-7.7,9.3-.9.7-.8,1.1,0,2.1s6.1,7.5,6.1,7.5c5.6-.9,8.5-9.6,8.5-10.1ZM132.2,61.2s5.5-1.7,5.9-7.8c.4-6.2-2.3-11-2.3-11,0,0-1.1,2.6-2.8,4.6,0,0,1.6,4.4-.4,7.6,0,0,0-4.2-.8-6.5,0,0-2.5,1.6-3.1,2-.6.4-.9,1.3-.7,3.9s2.1,6.2,4.3,7.3ZM142.8,44.7s.5,2.5-.5,4.5c0,0,0-3.3-.5-4.1,0,0-3.5-3-4-3.5s-.9,0-.3.9c.5,1,1.8,5.1,1.9,8.6.1,3.6,2.9,5.9,2.9,5.9,0,0,2.8-3.6,3.1-9,0-2.3-.9-5.8-.9-5.8,0,0-.6,1.4-1.8,2.5ZM136.8,59.1s.3,2.3-.3,3.4c0-.2-.1-2.1-.4-2.6,0,0-1.3,1.1-2,1.6-.7.5-.5,1.1-.4,1.7,0,.6.4,2.9,3.7,5.4,0,0,1.6-3.6,1.8-8.9,0-2.2-.3-4.4-.6-5,0,0-.6,2.2-2,4.4ZM132.5,63.1s-4-3.2-4.5-5.3c0,0-.2,8.9-1.2,10.3l-.7-10.3s-2.6,3.9-4.7,5.2c0,0-.3,7.4,4.6,15.6,0,0,7-7.1,6.6-15.5ZM133.6,66s-1.4,5-2.8,7.6c0,0,0,1.3.7,2.9,0,0,3.1-5.4,3.9-6.5.8-1.2.7-1.1.3-1.7s-2.1-2.2-2.1-2.2ZM118.5,10.8c0,1.8-.2,5.4-.2,5.4,1.2,0,1.8-.3,1.8-.3,0,0,.2-4.2.2-9.1,0-4.8-.4-7-1-6.9-.9,0-1.7,1.5-1.8,1.9s0,1.3,0,2.3.9,4.8.9,6.6ZM119.4,27.9c-.7-1.5-1-9.9-1-9.9-3.8.7-7.4,4.1-7.4,4.1,2.3,15.1,9,16,9,16,8.1-4.2,8.3-16.5,8.3-16.5-3.7-3.1-7.3-3.6-7.3-3.6-1.7,1.4-1.5,9.9-1.5,9.9ZM120,77.2c-.5-.7-.3-9.3-.3-9.3-.2,3.2-3.5,9.6-3.5,9.6,1.5,4.3,4.1,6.8,4.1,6.8,1.4-1.3,3.7-6.7,3.7-6.7-1.4-2.3-3.6-9.7-3.6-9.7.7,3.5-.5,9.3-.5,9.3ZM120,61.9h.2c7.4-5.2,6.1-12.1,6.1-12.1-1.1-.9-5.5-6-5.5-6,.2,2.8-.4,8.3-.4,8.3-.5-1.2-1.3-8.3-1.3-8.3-1.1,1.7-5.3,6-5.3,6-.5,8.4,6.2,12.1,6.2,12.1Z" fill="#54b848"/>
  <path d="M-.3,113.7h3.4v-6.1h8.9v-3.4H3.1v-2.7h11v-3.4H-.3v15.7ZM31.3,98h-9.2c-.9,0-1.7.3-2.3.9-.6.6-.9,1.4-.9,2.3v9.2c0,.9.3,1.7.9,2.3.6.6,1.4.9,2.3.9h9.2c.9,0,1.6-.3,2.3-.9.6-.6.9-1.4.9-2.3v-9.2c0-.9-.3-1.6-.9-2.3-.6-.6-1.4-.9-2.3-.9ZM31.1,110.3h-8.9v-8.9h8.9v8.9ZM43.7,98h-3.4v15.7h15.7v-3.4h-12.3v-12.3ZM69.2,101.9l-2,2.3h-3.1v-6.1h-3.4v15.7h3.4v-6.1h3.1l5.1,6.1h3.5v-1.2l-5.6-6.7,5.6-6.7v-1.2h-3.5l-3.2,3.8ZM81.6,113.7h3.4v-15.7h-3.4v15.7ZM102.1,108.5l-8.8-10.4h-3.5v15.7h3.4v-10.5l8.8,10.5h3.5v-15.7h-3.4v10.4ZM123.8,98h-9.2c-.9,0-1.7.3-2.3.9-.6.6-.9,1.4-.9,2.3v9.2c0,.9.3,1.7.9,2.3.6.6,1.4.9,2.3.9h9.2c.9,0,1.7-.3,2.3-.9.6-.6.9-1.4.9-2.3v-5.9h-6.8v3.4h3.4v2.3h-8.9v-8.9h8.9v1.3h3.4v-1.5c0-.9-.3-1.6-.9-2.3-.6-.6-1.4-.9-2.3-.9ZM133,113.7h14.5v-3.4h-11v-2.7h8.9v-3.4h-8.9v-2.7h11v-3.4h-14.5v15.7ZM168.2,104.2v-2.9c0-.9-.3-1.6-.9-2.3-.6-.6-1.4-.9-2.3-.9h-11.8v15.7h12.4c.9,0,1.7-.3,2.3-.9.6-.6.9-1.4.9-2.3v-3.2c0-.7-.3-1.4-.8-2,.1-.3.2-.6.2-1ZM156.5,101.4h8.3v2.6h-8.3v-2.6ZM165.4,110.3h-8.9v-2.9h8.9v2.9ZM187,98.1h-12.4v15.6h3.4v-5s0,0,0,0c0,0,0-.1,0-.1h4.5s4.3,5.1,4.3,5.1h3.5v-1.2l-3.4-4h.2c.9,0,1.6-.3,2.3-.9.6-.6,1-1.4,1-2.3v-4c0-.9-.3-1.6-1-2.3-.6-.6-1.4-.9-2.3-.9ZM186.9,105.2h-8.9v-3.7h8.9v3.7ZM196.1,113.7h14.5v-3.4h-11v-2.7h8.9v-3.4h-8.9v-2.7h11v-3.4h-14.5v15.7ZM236.1,98l-2.9,7.9-.5,1.5-3.4-9.3h-3.1l-2.9,7.9-.5,1.5-3.4-9.3h-3.6l5.7,15.7h2.6l2.3-6.2,1.4-3.8,3.7,10.1h2.6l5.7-15.7h-3.6Z" fill="#30302f"/>
</svg>