<?xml version="1.0" encoding="UTF-8"?>
<svg id="Layer_1" xmlns="http://www.w3.org/2000/svg" version="1.1" viewBox="0 0 60 16.8">
  <!-- Generator: Adobe Illustrator 29.7.1, SVG Export Plug-In . SVG Version: 2.1.1 Build 8)  -->
  <path d="M17.7.3c-1.2-.1-2.2.7-2.3,1.9,0,0,0,0,0,0v12.3c0,1.2,1.1,2,2.3,1.9,0,0,0,0,0,0,1.2,0,2.2-.8,2.3-1.9V2.2c-.1-1.2-1.1-2-2.3-1.9ZM10.4.4c-1.1-.1-2.2.7-2.3,1.9,0,0,0,0,0,0v4.8L4.2,1.3h0c-.4-.6-1.1-.9-1.7-.9h-.1C1.1.3.1,1.1,0,2.3c0,0,0,0,0,0v12.3c0,1.1,1.1,2,2.3,1.9,0,0,0,0,0,0,1.2,0,2.2-.8,2.3-1.9v-4.8l3.7,5.5c.1.3.3.5.6.7.4.3.9.5,1.4.5h.1c1.2,0,2.2-.8,2.3-1.9V2.3c-.1-1.2-1.1-2-2.3-1.9Z" fill="#3f3f46"/>
  <path d="M43.5.5c-.3,0-.7,0-1,.2l-2.7,1c-1.2.5-1.7,1.9-1.2,3.1.3,1,1.2,1.7,2.3,1.8h0v7.6c.1,1.3,1.2,2.3,2.5,2.2,1.3,0,2.5-.9,2.6-2.2V2.7c0-1.3-1.2-2.3-2.5-2.2ZM43.5,15.3c-.8,0-1.5-.5-1.5-1.2V5.1l-.9.3c0,0-.2,0-.3,0-.6,0-1.1-.5-1.3-1.1-.3-.7,0-1.5.6-1.8l2.7-1c.2,0,.4-.1.7-.1.8,0,1.4.5,1.5,1.2v11.5c0,.8-.8,1.3-1.5,1.2,0,0,0,0,0,0ZM58.4,7.5c.5-.7.7-1.5.8-2.4-.2-2.7-2.6-4.8-5.3-4.6-2.5.2-4.4,2.1-4.6,4.6,0,.9.3,1.7.8,2.4-1,.9-1.5,2.2-1.6,3.6.3,3.2,3.1,5.5,6.3,5.2,2.8-.3,5-2.5,5.2-5.2,0-1.4-.6-2.7-1.6-3.6ZM54.2,15.4c-2.5.1-4.6-1.8-4.7-4.3,0-1.2.6-2.4,1.6-3.1l.4-.3-.3-.4c-.5-.6-.8-1.3-.8-2.1.2-2.2,2.2-3.7,4.3-3.5,1.8.2,3.3,1.6,3.5,3.5,0,.8-.3,1.6-.8,2.1l-.3.4.4.3c1,.8,1.5,1.9,1.6,3.1-.1,2.5-2.2,4.4-4.7,4.3h0Z" fill="#3f3f46"/>
  <path d="M27.6,9.7c-.3-.3-.5-.7-.6-1.2,0-.5.2-1,.7-1.3l1.2-1.2.8-.8-3.3-3.5c-.4-.6-1.1-.9-1.8-1-.6,0-1.2.3-1.7.7-.9.8-1,2.1-.2,3,0,0,.1.1.2.2l3.7,4-3.7,4c-.9.9-.8,2.3,0,3.1,0,0,0,0,.1.1.4.4.9.6,1.5.6.7,0,1.4-.3,1.9-.8l3.3-3.6-2.1-2.2Z" fill="#3f3f46"/>
  <path d="M36.7,1.2h0c-.5-.5-1.1-.7-1.8-.8-.7,0-1.4.4-1.8,1l-4.1,4.4-1.2,1.2c-.4.3-.7.8-.7,1.3,0,.5.2.9.6,1.2l5.5,5.9c.5.5,1.2.8,1.9.9.6,0,1.1-.2,1.5-.6,1-.8,1.1-2.3.2-3.2,0,0,0,0-.1-.1l-3.6-3.9,3.6-3.9c.9-.8,1-2.2.2-3.2,0,0-.1-.1-.2-.2ZM31.9,8.4l4.1,4.6c.6.5.6,1.4,0,2,0,0,0,0-.1.1-.2.2-.6.4-.9.4-.5,0-.9-.2-1.3-.6l-5.5-5.9h0c-.2-.1-.3-.3-.3-.5,0-.1,0-.4.4-.7l5.4-5.8h0c.3-.4.7-.7,1.2-.7.4,0,.8.2,1.1.5.6.5.7,1.4.2,1.9,0,0-.1.1-.2.2l-4.2,4.5h0Z" fill="#3f3f46"/>
</svg>
