<?xml version="1.0" encoding="UTF-8"?><svg id="a" xmlns="http://www.w3.org/2000/svg" viewBox="0 0 383.95 652.65"><path d="M169.9,0c15.2.12,29.17,4.17,41.31,13.31,7.74-3.06,15.03-5.65,23.48-6.17,24.91-1.52,48.4,9.43,60.97,31.2,28.36.26,54.24,22.58,56.26,51.21,28.48,11.54,39.1,44.2,27.26,71.93-7.63,17.86-12.09,39.92-11.97,59.63.11,17.99,7.07,33.73,6.11,52.75-1.36,27-8.74,36.78-22.63,57.83-13.22,20.04-15.92,41.82-21,64.97-15.95,72.73-30.08,145.99-47.47,218.33-5.87,11.79-16.42,19.68-28.18,24.99-51.88,23.44-162.99,13.22-208.6-21.1-11.96-9-21.63-20.96-23.07-36.43-1.72-77.79-.41-155.75-2.91-233.49-.47-14.54-.07-29.61-4.81-43.48-7.51-21.94-15.71-31.09-14.53-56.8,1.3-28.32,15.58-45.67,19.24-71.63,1.56-11.05,2.25-29.51,1.27-40.61-.44-4.99-2.72-9.75-3.32-14.91-3.33-28.51,12.11-55.02,40.76-61.35,9.12-27.07,37.54-44.71,65.96-38.98C135.44,8.14,152.33-.14,169.9,0ZM284,52.44c-1.44-1.67-2.86-5.97-4.4-8.25-11.89-17.55-37.15-26.04-56.95-17.59-4.27,1.82-8.44,6.6-12.78,6.27-5.05-.39-6.53-4.43-10.1-7.22-15.21-11.91-42.3-12.07-57.41.13-5.04,4.07-9.4,13.68-15.99,13.21-11.34-.81-16.12-4.17-28.23.34-16.79,6.25-19.33,16.26-25.97,30.66-3.19,6.92-7.28,4.96-13.39,6.66-18.41,5.13-29.96,25.64-24.99,44.15,6.55,24.37,53.8,34.33,75.19,38.75,43.08,8.92,88.95,13.77,132.77,15.95,29.41,1.46,88.98,5.55,113.42-11.43,19.95-13.86,15.05-46.01-4.81-57.43-3.76-2.16-10.35-3.14-12.49-6.8-1.8-3.08-1.62-10.02-2.75-14.16-4.04-14.76-17.42-27.26-32.59-29.86-5.44-.93-15,.73-18.52-3.38ZM355.64,182.85l-19.5,6.25c-57.28,9.35-118.68,2.76-176.26-4.4-33.57-4.17-79.92-11.13-110.16-25.89-4.78-2.33-9.23-5.12-13.75-7.89,1.42,15.25-.89,30.47-3.89,45.4.21,2.37,8.27,6.52,10.62,7.75,34.9,18.16,86.24,24.03,125.14,28.86,40.33,5.01,81.39,8.83,122.13,7.45,20.17-.68,42.4-2.46,60.71-11.23.94-1.24.11-10.53.26-12.98.7-11.23,2.44-22.35,4.69-33.32ZM354.66,246.27c-27.82,10.3-59.45,11.74-89.02,11.16-38.01-.74-76.32-5.2-113.93-10.06-37.48-4.84-88.55-11.51-121.19-30.88-1.22-.73-3.64-3.48-4.85-2.79-9.27,17.65-11.93,38.68-6.93,58.03,2.71,10.48,8.49,19.26,11.73,29.31,5.69,17.63,4.7,41.5,5.15,60.23,1.47,61.3,1.48,122.67,2.49,183.99,1.68,16.93,25.38,29.43,39.36,35.26,45.1,18.81,131.72,28.28,177.27,8.28,7.85-3.45,15.3-8.26,20.15-15.49,13.62-55.05,24.17-111.07,36.36-166.54,5.98-27.23,10.11-59.96,25.56-83.16,2.97-4.46,7.02-8.71,9.79-13.29,11.71-19.37,12.79-42.37,8.07-64.05ZM270.7,598.31l-15.71,7.91c-50.92,19.84-145.31,9.31-193.65-14.95-8.22-4.13-16.47-9.24-22.62-16.13-3.34,14.05,9.13,25.96,19.73,33.09,41.86,28.15,147.51,38.31,192.74,14.9,10.84-5.61,17.19-12.4,19.5-24.81Z"/><path d="M354.66,246.27c4.71,21.67,3.64,44.68-8.07,64.05-2.77,4.58-6.82,8.84-9.79,13.29-15.46,23.2-19.58,55.92-25.56,83.16-12.18,55.47-22.74,111.49-36.36,166.54-4.84,7.23-12.29,12.04-20.15,15.49-45.55,20-132.17,10.52-177.27-8.28-13.98-5.83-37.67-18.33-39.36-35.26-1.01-61.32-1.02-122.69-2.49-183.99-.45-18.73.54-42.59-5.15-60.23-3.24-10.05-9.02-18.83-11.73-29.31-5-19.35-2.33-40.38,6.93-58.03,1.2-.69,3.62,2.07,4.85,2.79,32.64,19.37,83.71,26.04,121.19,30.88,37.62,4.86,75.93,9.33,113.93,10.06,29.57.57,61.2-.86,89.02-11.16ZM245.98,281.7c-9.89,1.23-11.26,18.2-.11,20.53,15.12,3.16,16.74-22.6.11-20.53ZM107.52,282.58c-9.47,1.18-11.55,17.75-1.47,20.39,16.7,4.37,18.43-22.51,1.47-20.39ZM183.07,335.68c-15.8-1.13-13.61,26.01,2.5,20,10.53-3.93,7.83-19.26-2.5-20ZM257.58,379.83c-9.92,1.05-11.85,18.45-.24,20.58,16.12,2.95,16.45-22.3.24-20.58ZM123.36,391.83c-10.11,1.07-11.42,17.98-.79,20.44,15.3,3.54,17.96-22.25.79-20.44ZM216.97,458.09c-3.42-4.19-11.07-4.33-14.74-.32-7.89,8.6.9,21.94,11.8,16.66,5.84-2.83,6.81-11.6,2.94-16.33ZM93.46,470.43c-10.73.73-12.31,17.86-1.47,20.36,15.57,3.58,17.79-21.47,1.47-20.36ZM164.22,524.98c-10.99.69-12.11,18.18-1.55,20.43,16.17,3.43,17.35-21.42,1.55-20.43Z" fill="#fdd900"/><path d="M284,52.44c3.52,4.11,13.08,2.45,18.52,3.38,15.17,2.59,28.55,15.1,32.59,29.86,1.13,4.14.95,11.08,2.75,14.16,2.13,3.66,8.73,4.64,12.49,6.8,19.86,11.42,24.76,43.56,4.81,57.43-24.43,16.98-84,12.9-113.42,11.43-43.82-2.18-89.69-7.03-132.77-15.95-21.39-4.43-68.64-14.38-75.19-38.75-4.98-18.51,6.58-39.02,24.99-44.15,6.11-1.7,10.2.25,13.39-6.66,6.64-14.4,9.17-24.41,25.97-30.66,12.12-4.51,16.9-1.15,28.23-.34,6.59.47,10.95-9.14,15.99-13.21,15.12-12.21,42.2-12.04,57.41-.13,3.57,2.79,5.05,6.83,10.1,7.22,4.33.34,8.51-4.44,12.78-6.27,19.79-8.45,45.06.04,56.95,17.59,1.54,2.28,2.97,6.57,4.4,8.25ZM147.5,105.22c-1.47-8.78-7.76-15.79-14.26-21.45,3.83-12.07,16.12-21.87,28.95-21.88,5.39,0,14.4,3.33,18.59,1.18,4.96-2.54,5.84-9.26,1.99-13.18s-15.98-4.94-21.52-4.74c-19.37.7-37.78,14.27-43.16,33.06-17.76-6.1-39.48,2.25-47.7,19.31-2.93,6.08-5.38,17.09,4.22,17.85,8.57.68,8.55-9.29,13.56-14.69,13.92-15,38.38-7.97,44.54,10.87-6.47,6.1-13.49,14.42-12.94,23.95.3,5.23,6.87,8.05,11.38,5.82,3.81-1.88,4.26-6.24,6.2-9.51,6.73-11.31,21.29-14.07,32.43-7.47,1.81,1.07,3.59,3.35,5.44,4.05,8.2,3.09,14.19-5.07,9.61-12.72-6.12-10.22-26.65-14.67-37.34-10.46ZM290.35,94.66c-1.99-16.7-14.62-32.15-30.23-38.17-7.85-3.03-34.35-8.3-30.97,7.12,1.99,9.11,13.74,5.59,20.87,7.23,9.92,2.28,18.95,10.43,22.38,19.98,3.29,9.15,1.23,6.71-4.57,11.07-4.93,3.71-9.31,8.46-11.81,14.18-10.48-5.75-28.36-6.39-37.64,1.89-6.03,5.38-4.52,15.17,4.18,15.54,3.82.16,6.22-2.62,9.79-3.66,11.51-3.34,23.81,2.81,28.08,13.94,2.33,6.07,1.77,14.21,11.56,12.22,11.51-2.34,2.84-25.36-3.43-30.32,4.4-6.77,10.11-12.19,18.29-13.93,11.56-2.46,24.46,3.43,29.6,14.13,2.76,5.74,2.05,17.46,12.55,14.34,9.84-2.92,4.1-19.48.32-25.48-8.7-13.82-22.91-19.84-38.95-20.09Z" fill="#fff"/><path d="M355.64,182.85c-2.25,10.98-3.99,22.1-4.69,33.32-.15,2.45.68,11.74-.26,12.98-18.32,8.77-40.54,10.55-60.71,11.23-40.74,1.38-81.8-2.44-122.13-7.45-38.9-4.83-90.24-10.7-125.14-28.86-2.35-1.22-10.41-5.38-10.62-7.75,3-14.93,5.31-30.15,3.89-45.4,4.52,2.77,8.97,5.55,13.75,7.89,30.25,14.76,76.6,21.71,110.16,25.89,57.58,7.16,118.98,13.75,176.26,4.4l19.5-6.25Z" fill="#fff"/><path d="M270.7,598.31c-2.32,12.41-8.67,19.2-19.5,24.81-45.23,23.41-150.88,13.26-192.74-14.9-10.6-7.13-23.07-19.04-19.73-33.09,6.16,6.89,14.4,12,22.62,16.13,48.33,24.26,142.73,34.79,193.65,14.95l15.71-7.91Z" fill="#fff"/><path d="M257.58,379.83c16.22-1.71,15.88,23.54-.24,20.58-11.61-2.13-9.68-19.53.24-20.58Z" fill="#fff100"/><path d="M107.52,282.58c16.96-2.11,15.23,24.77-1.47,20.39-10.08-2.64-8.01-19.21,1.47-20.39Z" fill="#fff100"/><path d="M164.22,524.98c15.8-1,14.62,23.86-1.55,20.43-10.57-2.24-9.44-19.73,1.55-20.43Z" fill="#fff100"/><path d="M93.46,470.43c16.32-1.12,14.11,23.94-1.47,20.36-10.84-2.49-9.26-19.62,1.47-20.36Z" fill="#fff100"/><path d="M123.36,391.83c17.17-1.82,14.51,23.98-.79,20.44-10.63-2.46-9.32-19.37.79-20.44Z" fill="#fff100"/><path d="M183.07,335.68c10.32.74,13.03,16.07,2.5,20-16.11,6.01-18.3-21.13-2.5-20Z" fill="#fff100"/><path d="M216.97,458.09c3.87,4.74,2.9,13.5-2.94,16.33-10.9,5.29-19.7-8.05-11.8-16.66,3.68-4.01,11.32-3.87,14.74.32Z" fill="#fff100"/><path d="M245.98,281.7c16.63-2.07,15.01,23.69-.11,20.53-11.15-2.33-9.78-19.3.11-20.53Z" fill="#fff100"/><path d="M147.5,105.22c10.69-4.21,31.21.24,37.34,10.46,4.59,7.65-1.41,15.82-9.61,12.72-1.86-.7-3.64-2.98-5.44-4.05-11.14-6.59-25.71-3.83-32.43,7.47-1.94,3.27-2.39,7.63-6.2,9.51-4.51,2.22-11.08-.59-11.38-5.82-.55-9.54,6.47-17.86,12.94-23.95-6.16-18.84-30.61-25.87-44.54-10.87-5.01,5.4-4.99,15.37-13.56,14.69-9.61-.76-7.15-11.77-4.22-17.85,8.22-17.06,29.95-25.41,47.7-19.31,5.38-18.79,23.79-32.36,43.16-33.06,5.53-.2,17.6.75,21.52,4.74s2.96,10.64-1.99,13.18c-4.19,2.15-13.2-1.19-18.59-1.18-12.82,0-25.12,9.8-28.95,21.88,6.5,5.66,12.79,12.67,14.26,21.45Z"/><path d="M290.35,94.66c16.04.25,30.25,6.27,38.95,20.09,3.78,6,9.52,22.57-.32,25.48-10.49,3.11-9.79-8.6-12.55-14.34-5.14-10.7-18.04-16.6-29.6-14.13-8.18,1.74-13.88,7.15-18.29,13.93,6.27,4.95,14.94,27.98,3.43,30.32-9.79,1.99-9.23-6.15-11.56-12.22-4.27-11.13-16.56-17.28-28.08-13.94-3.58,1.04-5.98,3.82-9.79,3.66-8.69-.37-10.21-10.16-4.18-15.54,9.28-8.28,27.16-7.64,37.64-1.89,2.5-5.72,6.88-10.48,11.81-14.18,5.8-4.37,7.86-1.92,4.57-11.07-3.43-9.55-12.46-17.7-22.38-19.98-7.13-1.64-18.87,1.88-20.87-7.23-3.38-15.42,23.12-10.15,30.97-7.12,15.61,6.03,28.23,21.48,30.23,38.17Z"/><path d="M63.51,421.35c1,.18,1.99.35,2.99.53.21-1.75.41-3.51.62-5.26,2.59.45,5.19.9,7.78,1.34.11-.97.23-1.94.34-2.91-2.59-.44-5.19-.88-7.78-1.34.09-.78.18-1.57.28-2.35,3.22.56,6.44,1.11,9.66,1.65.11-.97.23-1.94.34-2.91-4.21-.71-8.43-1.43-12.64-2.17-.53,4.48-1.06,8.95-1.59,13.43ZM92.68,412.51c-2.69-.42-5.38-.85-8.07-1.28-.79-.13-1.48.03-2.09.48-.61.45-.95,1.06-1.04,1.83-.3,2.64-.61,5.28-.92,7.92-.09.77.11,1.47.59,2.1.48.63,1.12,1,1.91,1.13,2.69.44,5.39.87,8.08,1.29.78.12,1.47-.05,2.08-.5.61-.46.96-1.06,1.05-1.83.3-2.64.6-5.29.9-7.93.09-.76-.12-1.45-.61-2.08-.49-.63-1.12-1-1.9-1.12ZM91.31,423.03c-2.59-.41-5.18-.82-7.77-1.24.29-2.54.59-5.08.88-7.62,2.59.42,5.18.83,7.76,1.24-.29,2.54-.58,5.09-.87,7.63ZM103.61,414.15c-.98-.15-1.97-.29-2.95-.44-.51,4.5-1.01,8.99-1.52,13.49,4.58.69,9.16,1.36,13.74,2,.11-.97.22-1.95.32-2.92-3.59-.5-7.19-1.02-10.78-1.56.4-3.52.79-7.05,1.18-10.57ZM125.56,420.56c-.64.59-1.29,1.19-1.93,1.78-.9-.12-1.79-.24-2.69-.36.19-1.76.38-3.52.58-5.29-.99-.13-1.98-.27-2.97-.4-.49,4.5-.99,8.99-1.48,13.49.99.14,1.99.27,2.98.41.19-1.76.39-3.52.58-5.29.9.12,1.79.24,2.69.36,1.31,1.96,2.62,3.92,3.93,5.88,1.03.13,2.06.27,3.09.4.04-.34.07-.68.11-1.01-1.43-2.12-2.86-4.25-4.29-6.37,1.84-1.7,3.68-3.4,5.52-5.11.04-.34.07-.68.11-1.01-1.03-.13-2.06-.26-3.09-.4-1.05.97-2.09,1.95-3.14,2.92ZM135.34,432.17c.99.12,1.99.24,2.98.37.48-4.5.96-9.01,1.44-13.51-.99-.12-1.98-.24-2.98-.36-.48,4.5-.96,9.01-1.44,13.51ZM153.81,429.77c-2.25-3.29-4.5-6.58-6.75-9.89-1.02-.12-2.04-.24-3.05-.36-.48,4.51-.95,9.01-1.43,13.52.99.12,1.98.23,2.96.35.32-3.02.64-6.03.95-9.05,2.26,3.32,4.52,6.63,6.79,9.93,1.02.11,2.04.22,3.06.33.47-4.51.94-9.02,1.4-13.53-1-.11-2-.22-3-.33-.31,3.01-.63,6.01-.94,9.02ZM173.84,422.71c-2.69-.26-5.38-.52-8.08-.79-.79-.08-1.49.12-2.09.6-.6.48-.94,1.11-1.02,1.89-.27,2.66-.55,5.32-.82,7.97-.08.78.13,1.46.62,2.06.49.6,1.13.93,1.93,1.02,2.7.28,5.4.54,8.09.8.79.08,1.49-.13,2.1-.63.61-.49.95-1.12,1.03-1.89.17-1.71.34-3.41.52-5.12-1.99-.19-3.99-.38-5.98-.57-.1.98-.2,1.96-.3,2.94.99.1,1.99.19,2.98.29-.07.68-.14,1.35-.21,2.03-2.6-.25-5.2-.51-7.8-.77.26-2.56.52-5.12.79-7.67,2.6.26,5.2.52,7.79.77-.04.38-.08.75-.11,1.13,1,.1,2,.19,3,.28.04-.43.09-.85.13-1.28.08-.77-.13-1.45-.63-2.05-.5-.6-1.14-.93-1.93-1.01ZM180.53,437.01c4.24.38,8.49.75,12.73,1.09.1-.98.19-1.96.29-2.94-3.24-.26-6.48-.53-9.72-.82.08-.79.16-1.58.24-2.37,2.61.23,5.22.45,7.82.66.1-.98.19-1.96.29-2.94-2.61-.21-5.21-.43-7.82-.66.08-.79.16-1.58.24-2.37,3.24.28,6.47.55,9.71.81.1-.98.19-1.96.29-2.94-4.24-.34-8.47-.7-12.7-1.08-.45,4.52-.9,9.04-1.35,13.56ZM212.31,431.2c.08-.85.16-1.7.24-2.55.07-.77-.14-1.44-.64-2.03-.5-.58-1.14-.9-1.92-.96-3.47-.24-6.93-.49-10.4-.75-.44,4.53-.88,9.05-1.32,13.58,3.64.28,7.29.55,10.93.8.79.05,1.49-.17,2.1-.68.61-.51.95-1.15,1.02-1.92.09-.94.18-1.87.27-2.81.06-.63-.11-1.24-.5-1.82.11-.22.18-.51.22-.86ZM202.27,428.08c2.42.18,4.84.35,7.26.52-.07.75-.14,1.51-.22,2.26-2.42-.17-4.85-.34-7.27-.52.07-.75.15-1.51.22-2.26ZM209.34,436.34c-2.6-.18-5.21-.37-7.81-.56.08-.83.16-1.66.24-2.49,2.6.19,5.2.38,7.81.56-.08.83-.16,1.66-.24,2.49ZM229.39,426.88c-3.64-.2-7.28-.41-10.91-.64-.42,4.53-.85,9.05-1.28,13.58.99.06,1.98.12,2.97.18.14-1.45.27-2.91.41-4.36.01.01.03.02.06.02,0-.08,0-.11-.05-.12,1.31.07,2.63.14,3.94.21,1.13,1.57,2.26,3.13,3.39,4.69,1.02.06,2.04.11,3.06.17.03-.33.06-.67.09-1-.89-1.21-1.78-2.42-2.67-3.64.04,0,.09,0,.13,0,.78.04,1.47-.2,2.09-.71.61-.52.95-1.16,1.02-1.93.11-1.17.22-2.34.32-3.52.07-.77-.15-1.44-.66-2.02-.51-.58-1.15-.89-1.93-.93ZM228.66,433.03c-2.6-.14-5.2-.29-7.81-.45.1-1.08.2-2.15.3-3.23,2.6.16,5.2.31,7.8.45-.1,1.08-.2,2.15-.3,3.23ZM236.12,440.88c4.25.21,8.49.4,12.74.57.09-.98.18-1.97.26-2.95-3.24-.13-6.48-.27-9.73-.42.07-.79.14-1.59.22-2.38,2.61.12,5.22.24,7.83.34.09-.98.18-1.97.26-2.95-2.61-.11-5.22-.22-7.82-.34.07-.79.14-1.59.22-2.38,3.24.15,6.48.29,9.71.41.09-.98.18-1.97.26-2.95-4.24-.16-8.47-.35-12.71-.55-.41,4.54-.83,9.07-1.24,13.61ZM272.53,428.51c-1.04,2.27-2.07,4.53-3.11,6.8-.2.42-.39.84-.59,1.26-.77-2.73-1.55-5.47-2.32-8.2-.91-.02-1.82-.05-2.73-.08-1.04,2.26-2.08,4.52-3.12,6.78-.2.42-.39.84-.59,1.25-.76-2.74-1.53-5.48-2.29-8.22-1.05-.03-2.1-.07-3.15-.11,1.27,4.6,2.54,9.2,3.81,13.8.76.02,1.52.05,2.28.07.83-1.79,1.66-3.58,2.48-5.37.5-1.1,1.01-2.2,1.51-3.3.83,2.95,1.66,5.91,2.49,8.86.76.02,1.52.04,2.28.06,2.06-4.51,4.12-9.02,6.18-13.53-1.04-.02-2.09-.04-3.13-.07Z" fill="#231f20"/></svg>