<svg xmlns="http://www.w3.org/2000/svg" width="98.75" height="316.09" viewBox="0 0 98.75 316.09"><path d="M494,244.58c-2.49-1.71-7.41-6-7.41-6-.84,1.83-1.68,9.2-1.38,9.85-2-4.16-1.07-12.87-1.07-12.87a69.6,69.6,0,0,1-7.4-16.49c-1.19,2.36-2.26,10.38-2.26,18.86.65,19.82,6.88,33.53,6.88,33.53,12.52-9.63,13.71-18.33,14-20.47S496.49,246.3,494,244.58Z" transform="translate(-449.88 -12.95)" fill="#f1f2f2"/><path d="M490.42,269.94c-1.3,2.56-1.76,2.25,1.3,6.6s14.77,24.59,14.77,24.59a35.06,35.06,0,0,0,2.56-10.92c-5.46-9.81-10.61-28.6-10.61-28.6S491.72,267.34,490.42,269.94Z" transform="translate(-449.88 -12.95)" fill="#f1f2f2"/><path d="M546.32,13c-3.55.38-6.38,5.61-6.61,7.22s0,4.77,0,8.66,3.55,18,3.55,24.94-.61,20.43-.61,20.43a17.65,17.65,0,0,0,6-.77V17.06C548,14.19,547.27,12.86,546.32,13Z" transform="translate(-449.88 -12.95)" fill="#f1f2f2"/><path d="M547.77,269.14c-.8,11.87-13,36-13,36a70.29,70.29,0,0,0,13.88,23.94V303.52C547.07,298.71,547.77,269.14,547.77,269.14Z" transform="translate(-449.88 -12.95)" fill="#f1f2f2"/><path d="M546.7,118.12c-2.56-5.77-3.86-37.5-3.86-37.5C528.49,83.41,515,96.05,515,96.05c8.1,53.78,31.21,59.87,33.62,60.37V89.72C546.36,101,546.7,118.12,546.7,118.12Z" transform="translate(-449.88 -12.95)" fill="#f1f2f2"/><path d="M545.52,178.07c-4,6.3-19.94,22.45-19.94,22.45-1.8,30,20.66,44.09,23,45.51V201.51C547.09,192,545.52,178.07,545.52,178.07Z" transform="translate(-449.88 -12.95)" fill="#f1f2f2"/><path d="M544.91,250.16c-8-4.66-17.84-19.44-17.84-19.44l-2.75,38.87c-3.85-5.3-4.65-38.87-4.65-38.87-1.91,8-16.88,19.94-16.88,19.94-1.61,31.65,24.89,58.49,24.89,58.49C546.17,278.11,544.91,250.16,544.91,250.16Z" transform="translate(-449.88 -12.95)" fill="#f1f2f2"/><path d="M487.29,84.86c6,0,11.79,2.18,16.41,4.28s8.75,2.63,10.39,1.41,17.83-12.07,17.83-12.07-9-.11-10.57-.53C518.48,77.15,503,71,491,71c-26.92,0-33.64,33.79-33.64,33.79C470.48,90.24,481.25,84.86,487.29,84.86Z" transform="translate(-449.88 -12.95)" fill="#f1f2f2"/><path d="M481.71,173.56c1.91-3.63.54-5.15-1.3-3.44s-15,13.18-15,13.18c-1.71,3-1.83,15.54-1.83,15.54-3.55-7.48-1.72-17-1.72-17a31.07,31.07,0,0,1-6.64-9.43s-3.21,13.4-3.21,22a64.68,64.68,0,0,0,11.57,34.06s10.39-8.89,10.92-22.26S479.76,177.23,481.71,173.56Z" transform="translate(-449.88 -12.95)" fill="#f1f2f2"/><path d="M488.16,172.42a80.18,80.18,0,0,0-8.82,41.46c1.61,23.3,22.19,29.56,22.19,29.56,8.36-4,15.73-17.83,16.23-27.46s-.5-13.17-2.75-14.62l-11.72-7.56c-2.75,8.82-2.91,24.59-2.91,24.59-7.71-12.07-1.6-28.6-1.6-28.6A76.71,76.71,0,0,1,488.16,172.42Z" transform="translate(-449.88 -12.95)" fill="#f1f2f2"/><path d="M543.91,168.86c2.9-3.85,3.55-5.46,0-8s-22.18-15.74-28.9-35.17c0,0-2.26,27.8,0,34.55a67.85,67.85,0,0,1-5.31-35.51s-15.27,26.66-17.53,29.71-3.05,2.9-3.05,4.66,10.77,34.71,32,37.92C521.12,197,541.05,172.72,543.91,168.86Z" transform="translate(-449.88 -12.95)" fill="#f1f2f2"/><path d="M465.52,178.07s24.21-21.65,34.48-49.49c5.77-13.48,10.92-18.4,10.92-18.4s0-10.93-1.3-12.22c0,0-22.26,3.62-37.26,28.06,0,0,3-25,29.36-32.11,0,0-6.22-3.86-10.69-3.86s-14.78.84-30.21,17.15-10.5,38.56-9,45.86S459.53,173.14,465.52,178.07Z" transform="translate(-449.88 -12.95)" fill="#f1f2f2"/></svg>
