<?xml version="1.0" encoding="UTF-8"?><svg id="a" xmlns="http://www.w3.org/2000/svg" viewBox="0 0 246.63 400"><path d="M47.1,90.55c7.59,0,14.85,2.73,20.68,5.37,5.83,2.64,11,3.3,13.09,1.76,2.09-1.54,22.44-15.18,22.44-15.18,0,0-11.4-.13-13.31-.66-3.59-1-23.1-8.69-38.17-8.69-33.88,0-42.37,42.55-42.37,42.55,16.5-18.37,30.05-25.14,37.64-25.14ZM19.71,207.92s30.47-27.24,43.42-62.3c7.28-16.99,13.75-23.19,13.75-23.19,0,0,0-13.75-1.62-15.37,0,0-28.05,4.58-46.92,35.33,0,0,3.78-31.55,36.95-40.45,0,0-7.82-4.85-13.48-4.85s-18.61,1.08-38.02,21.57C-5.64,139.15.56,167.2,2.45,176.37c1.89,9.17,9.71,25.35,17.26,31.55ZM118.41,196.33c3.64-4.85,4.45-6.88,0-10.11-4.45-3.24-27.91-19.82-36.41-44.29,0,0-2.83,34.99,0,43.49,0,0-9.71-19.21-6.67-44.7,0,0-19.21,33.57-22.05,37.42-2.83,3.84-3.84,3.64-3.84,5.87s13.55,43.69,40.25,47.73c0,0,25.08-30.54,28.72-35.4ZM48.23,200.78s-13.15,22.86-11.12,52.18c2.02,29.33,27.91,37.22,27.91,37.22,10.52-5.06,19.82-22.45,20.43-34.59.61-12.14-.61-16.59-3.44-18.41-2.83-1.82-14.76-9.51-14.76-9.51-3.44,11.12-3.64,30.95-3.64,30.95-9.71-15.17-2.02-36-2.02-36-8.29-9.71-13.35-21.84-13.35-21.84ZM40.07,202.26c2.43-4.58.67-6.47-1.63-4.31-2.3,2.16-18.87,16.59-18.87,16.59-2.16,3.78-2.29,19.55-2.29,19.55-4.45-9.44-2.16-21.44-2.16-21.44-5.66-5.39-8.36-11.87-8.36-11.87,0,0-4.05,16.85-4.05,27.64,1.21,25.75,14.56,42.88,14.56,42.88,0,0,13.08-11.19,13.75-28.05.67-16.85,6.61-36.41,9.03-40.99ZM55.58,291.66c-3.1-2.16-9.3-7.55-9.3-7.55-1.08,2.29-2.11,11.58-1.75,12.41-2.56-5.26-1.35-16.18-1.35-16.18-6.47-10.38-9.3-20.77-9.3-20.77-1.48,2.97-2.83,13.08-2.83,23.73.81,24.95,8.63,42.2,8.63,42.2,15.78-12.14,17.26-23.06,17.66-25.75.4-2.7,1.35-5.93-1.75-8.09ZM119.62,298.67c-10.11-5.87-22.45-24.47-22.45-24.47l-3.44,48.95c-4.85-6.67-5.87-48.95-5.87-48.95-2.43,10.11-21.24,25.08-21.24,25.08-2.02,39.84,31.35,73.62,31.35,73.62,23.26-39.04,21.64-74.23,21.64-74.23ZM51.06,323.55c-1.62,3.24-2.22,2.83,1.62,8.29,3.84,5.46,18.61,30.95,18.61,30.95,3.03-7.48,3.24-13.75,3.24-13.75-6.88-12.34-13.35-36-13.35-36,0,0-8.49,7.28-10.11,10.52ZM179.65,95.91c5.83-2.64,13.09-5.37,20.68-5.37s21.14,6.77,37.64,25.14c0,0-8.5-42.55-42.37-42.55-15.07,0-34.58,7.69-38.17,8.69-1.91.53-13.31.66-13.31.66,0,0,20.35,13.64,22.44,15.18,2.09,1.54,7.26.88,13.09-1.76ZM226.92,207.52c7.55-6.2,15.37-22.38,17.26-31.55,1.89-9.17,8.09-37.22-11.33-57.71-19.42-20.5-32.36-21.57-38.02-21.57s-13.48,4.85-13.48,4.85c33.17,8.9,36.95,40.45,36.95,40.45-18.88-30.74-46.92-35.33-46.92-35.33-1.62,1.62-1.62,15.37-1.62,15.37,0,0,6.47,6.2,13.75,23.19,12.94,35.06,43.42,62.3,43.42,62.3ZM197.99,183.99c0-2.22-1.01-2.02-3.84-5.87-2.83-3.84-22.05-37.42-22.05-37.42,3.03,25.48-6.67,44.7-6.67,44.7,2.83-8.49,0-43.49,0-43.49-8.49,24.47-31.96,41.06-36.41,44.29-4.45,3.24-3.64,5.26,0,10.11,3.64,4.85,28.72,35.4,28.72,35.4,26.7-4.05,40.25-45.51,40.25-47.73ZM182.42,290.17s25.89-7.89,27.91-37.22c2.02-29.33-11.12-52.18-11.12-52.18,0,0-5.06,12.14-13.35,21.84,0,0,7.69,20.83-2.02,36,0,0-.2-19.82-3.64-30.95,0,0-11.93,7.69-14.76,9.51-2.83,1.82-4.05,6.27-3.44,18.41.61,12.14,9.91,29.53,20.43,34.59ZM232.71,211.83s2.29,12-2.16,21.44c0,0-.13-15.78-2.29-19.55,0,0-16.56-14.43-18.87-16.59-2.3-2.16-4.06-.27-1.63,4.31,2.43,4.58,8.36,24.14,9.03,40.99.67,16.85,13.75,28.05,13.75,28.05,0,0,13.35-17.12,14.56-42.88,0-10.79-4.05-27.64-4.05-27.64,0,0-2.7,6.47-8.36,11.87ZM204.26,280.33s1.21,10.92-1.35,16.18c.35-.83-.67-10.11-1.75-12.41,0,0-6.2,5.39-9.3,7.55-3.1,2.16-2.16,5.39-1.75,8.09.4,2.7,1.89,13.62,17.66,25.75,0,0,7.82-17.26,8.63-42.2,0-10.65-1.35-20.77-2.83-23.73,0,0-2.83,10.38-9.3,20.77ZM184.04,299.28s-18.81-14.97-21.24-25.08c0,0-1.01,42.27-5.87,48.95l-3.44-48.95s-12.34,18.61-22.45,24.47c0,0-1.62,35.19,21.64,74.23,0,0,33.37-33.78,31.35-73.62ZM189.5,313.03s-6.47,23.66-13.35,36c0,0,.2,6.27,3.24,13.75,0,0,14.76-25.48,18.61-30.95,3.84-5.46,3.24-5.06,1.62-8.29-1.62-3.24-10.11-10.52-10.11-10.52ZM117.58,51.42c0,8.77-.77,25.71-.77,25.71,5.7.15,8.62-1.39,8.62-1.39,0,0,1.08-20.01.77-42.95C125.89,9.86,124.34-.29,121.43,0c-4.46.46-8,7.08-8.31,9.08s0,6,0,10.93,4.46,22.63,4.46,31.4ZM121.92,132.41c-3.24-7.28-4.85-47.19-4.85-47.19-18.07,3.51-35.06,19.42-35.06,19.42,10.79,71.46,42.61,76.05,42.61,76.05,38.29-19.96,39.38-78.48,39.38-78.48-17.53-14.83-34.79-16.99-34.79-16.99-8.09,6.47-7.28,47.19-7.28,47.19ZM124.61,366.43c-2.3-3.44-1.35-43.89-1.35-43.89-1.01,14.97-16.38,45.31-16.38,45.31,7.08,20.63,19.42,32.16,19.42,32.16,6.88-6.27,17.6-31.55,17.6-31.55-6.47-10.72-16.99-45.91-16.99-45.91,3.24,16.38-2.3,43.89-2.3,43.89ZM124.61,293.61h.78c34.89-24.68,29.02-57.24,29.02-57.24-5.26-4.25-26.09-28.45-26.09-28.45,1.01,13.42-1.82,39.58-1.82,39.58-2.22-5.46-6.07-39.58-6.07-39.58-5.06,7.96-25.08,28.25-25.08,28.25-2.43,39.84,29.26,57.44,29.26,57.44Z" fill="#fff"/></svg>