<svg xmlns="http://www.w3.org/2000/svg" width="60.66" height="98.38" viewBox="0 0 60.66 98.38"><path d="M25.41,20.29s-5,3.35-5.52,3.73-1.78.22-3.22-.43a12.63,12.63,0,0,0-5.08-1.32c-1.87,0-5.2,1.67-9.26,6.18,0,0,2.09-10.46,10.42-10.46,3.71,0,8.5,1.89,9.39,2.14C22.61,20.26,25.41,20.29,25.41,20.29Z" transform="translate(0 0)" fill="#FFF"/><path d="M18.51,26.33S11.61,27.46,7,35a12.38,12.38,0,0,1,9.09-10,8.24,8.24,0,0,0-3.32-1.19c-1.39,0-4.57.26-9.35,5.3S.14,41.07.6,43.33,3,49.56,4.85,51.09c0,0,7.49-6.7,10.68-15.32a18.75,18.75,0,0,1,3.38-5.71S18.91,26.73,18.51,26.33Z" transform="translate(0 0)" fill="#FFF"/><path d="M18.53,34.61s-4.73,8.25-5.42,9.2-1,.89-1,1.44S15.49,56,22.06,57c0,0,6.17-7.51,7.06-8.7s1.1-1.7,0-2.49-6.86-4.88-8.95-10.9c0,0-.7,8.61,0,10.7A21,21,0,0,1,18.53,34.61Z" transform="translate(0 0)" fill="#FFF"/><path d="M11.86,49.38a23.12,23.12,0,0,0,3.29,5.37s-1.89,5.13.49,8.86a34.86,34.86,0,0,1,.9-7.61l3.63,2.33c.7.45,1,1.55.85,4.53s-2.44,7.26-5,8.51a10.33,10.33,0,0,1-6.86-9.16A24.83,24.83,0,0,1,11.86,49.38Z" transform="translate(0 0)" fill="#FFF"/><path d="M1.67,49.38a9.61,9.61,0,0,0,2,2.92,9.87,9.87,0,0,0,.53,5.27s0-3.88.57-4.81c0,0,4.07-3.55,4.64-4.08s1-.06.4,1.07A31.77,31.77,0,0,0,7.58,59.83,10.5,10.5,0,0,1,4.2,66.72,20.12,20.12,0,0,1,.62,56.18,37.28,37.28,0,0,1,1.67,49.38Z" transform="translate(0 0)" fill="#FFF"/><path d="M10.62,69A9.66,9.66,0,0,0,11,73a10.51,10.51,0,0,1,.43-3s1.53,1.32,2.29,1.85.53,1.33.43,2-.46,3.35-4.34,6.34A29.78,29.78,0,0,1,7.63,69.76a18.9,18.9,0,0,1,.7-5.84A21.51,21.51,0,0,0,10.62,69Z" transform="translate(0 0)" fill="#FFF"/><path d="M21.61,67.44s.25,10.39,1.45,12l.84-12s3,4.57,5.52,6A35.89,35.89,0,0,1,24.1,91.69s-8.21-8.3-7.71-18.1C16.39,73.61,21,69.93,21.61,67.44Z" transform="translate(0 0)" fill="#FFF"/><path d="M15.05,77a51.57,51.57,0,0,0,3.28,8.84,10.69,10.69,0,0,1-.8,3.39S13.9,83,13,81.62s-.8-1.25-.4-2A16.24,16.24,0,0,1,15.05,77Z" transform="translate(0 0)" fill="#FFF"/><path d="M35.45,20.29s5,3.35,5.52,3.73,1.78.22,3.22-.43a12.63,12.63,0,0,1,5.08-1.32c1.87,0,5.2,1.67,9.26,6.18,0,0-2.09-10.46-10.42-10.46-3.71,0-8.5,1.89-9.39,2.14C38.25,20.26,35.45,20.29,35.45,20.29Z" transform="translate(0 0)" fill="#FFF"/><path d="M42.15,26.23s6.9,1.13,11.54,8.69a12.38,12.38,0,0,0-9.09-10,8.24,8.24,0,0,1,3.32-1.19c1.39,0,4.57.26,9.35,5.3S60.52,41,60.06,43.23,57.67,49.46,55.81,51c0,0-7.49-6.7-10.68-15.32A18.68,18.68,0,0,0,41.75,30S41.75,26.63,42.15,26.23Z" transform="translate(0 0)" fill="#FFF"/><path d="M42.33,34.61s4.73,8.25,5.42,9.2,1,.89,1,1.44S45.33,56,38.8,57c0,0-6.17-7.51-7.07-8.7s-1.09-1.7,0-2.49,6.87-4.88,9-10.9c0,0,.7,8.61,0,10.7A21,21,0,0,0,42.33,34.61Z" transform="translate(0 0)" fill="#FFF"/><path d="M49,49.38a23.12,23.12,0,0,1-3.29,5.37s1.89,5.13-.49,8.86A34.25,34.25,0,0,0,44.33,56L40.7,58.33c-.7.45-1,1.55-.85,4.53s2.44,7.26,5,8.51a10.33,10.33,0,0,0,6.86-9.16A24.84,24.84,0,0,0,49,49.38Z" transform="translate(0 0)" fill="#FFF"/><path d="M59.33,49.18a9.76,9.76,0,0,1-2,2.92,9.87,9.87,0,0,1-.53,5.27s0-3.88-.57-4.81c0,0-4.07-3.54-4.64-4.07s-1-.07-.4,1.06a31.44,31.44,0,0,1,2.19,10.08,10.51,10.51,0,0,0,3.39,6.9A20.12,20.12,0,0,0,60.33,56,37.41,37.41,0,0,0,59.33,49.18Z" transform="translate(0 0)" fill="#FFF"/><path d="M50.24,69a9.66,9.66,0,0,1-.33,4,10.86,10.86,0,0,0-.43-3S48,71.27,47.19,71.8s-.53,1.33-.43,2,.46,3.35,4.34,6.34a29.77,29.77,0,0,0,2.12-10.38,18.89,18.89,0,0,0-.69-5.84A21.51,21.51,0,0,1,50.24,69Z" transform="translate(0 0)" fill="#FFF"/><path d="M40,67.44s-.25,10.39-1.44,12l-.85-12s-3,4.57-5.52,6a35.89,35.89,0,0,0,5.32,18.25s8.21-8.3,7.72-18.1C45.27,73.61,40.64,69.93,40,67.44Z" transform="translate(0 0)" fill="#FFF"/><path d="M46.61,77a51.57,51.57,0,0,1-3.28,8.84,10.68,10.68,0,0,0,.79,3.39S47.75,83,48.7,81.62s.79-1.25.4-2A16.24,16.24,0,0,0,46.61,77Z" transform="translate(0 0)" fill="#FFF"/><path d="M29.87,0C30.58-.07,31,2.42,31,8.07s-.19,10.56-.19,10.56a4.54,4.54,0,0,1-2.12.34s.19-4.17.19-6.32-1.1-6.51-1.1-7.73-.07-2.19,0-2.68S28.77.12,29.87,0Z" transform="translate(0 0)" fill="#FFF"/><path d="M20.17,25.74s4.16-3.92,8.62-4.74c0,0,.4,9.82,1.2,11.61,0,0-.2-10,1.79-11.61a18.11,18.11,0,0,1,8.55,4.14s-.26,14.39-9.68,19.3C30.65,44.44,22.82,43.31,20.17,25.74Z" transform="translate(0 0)" fill="#FFF"/><path d="M30.33,79.33s-.24,10,.33,10.79c0,0,1.36-6.76.56-10.79,0,0,2.59,8.65,4.18,11.29,0,0-2.63,6.22-4.33,7.76a20.84,20.84,0,0,1-4.74-7.91S30.07,83,30.33,79.33Z" transform="translate(0 0)" fill="#FFF"/><path d="M30.65,72.21a15.38,15.38,0,0,1-7.2-14.12s4.93-5,6.17-7c0,0,1,8.39,1.49,9.73a73.55,73.55,0,0,0,.45-9.73s5.13,6,6.42,7c0,0,1.44,8-7.14,14.07" transform="translate(0 0)" fill="#FFF"/></svg>
