<svg xmlns="http://www.w3.org/2000/svg" width="30.81" height="49.99" viewBox="0 0 30.81 49.99"><title>logo-folkingebrew-hopje</title><path d="M5.87,11.33A6.33,6.33,0,0,1,8.46,12c.74.34,1.37.41,1.64.21l2.79-1.88a15.37,15.37,0,0,1-1.66-.08,17.26,17.26,0,0,0-4.76-1.1c-4.24,0-5.3,5.36-5.3,5.36C3.23,12.18,4.92,11.33,5.87,11.33ZM2.46,26A22.48,22.48,0,0,0,7.88,18.2,9.68,9.68,0,0,1,9.6,15.3a7.26,7.26,0,0,0-.2-1.91A9.31,9.31,0,0,0,3.56,17.8a6.24,6.24,0,0,1,4.61-5.06,4.23,4.23,0,0,0-1.69-.6c-.7,0-2.31.13-4.75,2.67S.07,20.9.3,22.05A8.51,8.51,0,0,0,2.46,26Zm12.33-1.44c.45-.61.55-.9,0-1.25a12.54,12.54,0,0,1-4.56-5.54,27.47,27.47,0,0,0,0,5.44,10.6,10.6,0,0,1-.82-5.59S7,21.81,6.65,22.29s-.48.46-.48.74,1.69,5.44,5,6C11.21,29,14.33,25.15,14.79,24.55Zm-8.74.55a12.46,12.46,0,0,0-1.4,6.51,5.24,5.24,0,0,0,3.46,4.64,5.83,5.83,0,0,0,2.56-4.31c0-1.53-.07-2.08-.44-2.3L8.4,28.39a17.43,17.43,0,0,0-.47,3.87,5.67,5.67,0,0,1-.25-4.46A11.88,11.88,0,0,1,6,25.1Zm-1,.19c.3-.59.09-.81-.2-.55L2.46,26.79a9.5,9.5,0,0,0-.29,2.5,5,5,0,0,1-.26-2.69,4.82,4.82,0,0,1-1-1.45,19.44,19.44,0,0,0-.55,3.47A10.13,10.13,0,0,0,2.13,34a5.29,5.29,0,0,0,1.69-3.55A16.17,16.17,0,0,1,5,25.29ZM7,36.45c-.39-.26-1.16-.94-1.16-.94a5.44,5.44,0,0,0-.23,1.55A5,5,0,0,1,5.35,35a11.4,11.4,0,0,1-1.17-2.5,9.23,9.23,0,0,0-.36,2.91A15.12,15.12,0,0,0,4.9,40.68c2-1.51,2.23-2.88,2.23-3.18s.19-.78-.2-1Zm8,.9a12.73,12.73,0,0,1-2.81-3.05l-.42,6.11c-.61-.84-.74-6.11-.74-6.11-.3,1.25-2.67,3.12-2.67,3.12-.25,5,3.91,9.21,3.91,9.21A18.33,18.33,0,0,0,15,37.32Zm-8.67,3.1c-.2.4-.27.35.2,1s2.35,3.87,2.35,3.87a5.74,5.74,0,0,0,.45-1.73,26.31,26.31,0,0,1-1.67-4.46A7.39,7.39,0,0,0,6.32,40.45ZM22.44,12a6.35,6.35,0,0,1,2.63-.66c.95,0,2.67.89,4.7,3.13,0,0-1.07-5.34-5.3-5.34a16.46,16.46,0,0,0-4.8,1.12c-.24.06-1.66.08-1.66.08s2.5,1.7,2.8,1.88A2,2,0,0,0,22.44,12Zm5.91,14A8.49,8.49,0,0,0,30.5,22c.24-1.15,1-4.66-1.41-7.21s-4-2.67-4.75-2.67a4.16,4.16,0,0,0-1.68.58,6.27,6.27,0,0,1,4.61,5.06,9.38,9.38,0,0,0-5.85-4.43,6.22,6.22,0,0,0-.21,1.92,9.17,9.17,0,0,1,1.72,2.9A22.48,22.48,0,0,0,28.35,25.94ZM24.73,23c0-.27-.12-.25-.47-.74s-2.77-4.67-2.77-4.67a10.72,10.72,0,0,1-.82,5.62,27.37,27.37,0,0,0,0-5.43,12.69,12.69,0,0,1-4.56,5.53c-.57.4-.45.67,0,1.25S19.68,29,19.68,29C23,28.45,24.73,23.28,24.73,23ZM22.79,36.25a5.24,5.24,0,0,0,3.53-4.64,12.79,12.79,0,0,0-1.39-6.51,11.91,11.91,0,0,1-1.69,2.72A5.64,5.64,0,0,1,23,32.3a17.44,17.44,0,0,0-.46-3.88l-1.85,1.25c-.35.23-.5.78-.42,2.3A5.89,5.89,0,0,0,22.79,36.25ZM29,26.44a5,5,0,0,1-.22,2.68,9.29,9.29,0,0,0-.22-2.41s-2.07-1.78-2.35-2.07-.51,0-.21.53a16.44,16.44,0,0,1,1.13,5.13,5.35,5.35,0,0,0,1.65,3.51,10.09,10.09,0,0,0,1.78-5.36A19.19,19.19,0,0,0,30.07,25a5.48,5.48,0,0,1-1,1.49ZM25.47,35a4.89,4.89,0,0,1-.18,2,5.73,5.73,0,0,0-.22-1.54s-.79.68-1.16,1-.28.68-.23,1a4.88,4.88,0,0,0,2.21,3.23A15.17,15.17,0,0,0,27,35.37a9.24,9.24,0,0,0-.35-3A11.6,11.6,0,0,1,25.52,35ZM23,37.4s-2.35-1.88-2.68-3.14c0,0-.12,5.29-.73,6.11l-.43-6.11a12.41,12.41,0,0,1-2.81,3.06A18.25,18.25,0,0,0,19,46.61s4.25-4.23,4-9.2Zm.67,1.71A25.45,25.45,0,0,1,22,43.57a5.45,5.45,0,0,0,.4,1.73s1.85-3.19,2.33-3.87.41-.63.21-1a8.41,8.41,0,0,0-1.25-1.28Zm-9-32.68c0,1.1-.1,3.21-.1,3.21a2.15,2.15,0,0,0,1.09-.17s.12-2.5.1-5.35S15.53,0,15.17,0c-.56.07-1,.89-1,1.14,0,.46,0,.91,0,1.36C14.13,3.12,14.68,5.37,14.68,6.43Zm.55,10.12a37.71,37.71,0,0,1-.61-5.9,10.8,10.8,0,0,0-4.39,2.43c1.35,8.93,5.36,9.51,5.36,9.51,4.79-2.5,4.93-9.83,4.93-9.83a9.39,9.39,0,0,0-4.35-2.12C15.17,11.47,15.23,16.55,15.23,16.55Zm.34,29.25a36,36,0,0,1-.18-5.49A22.13,22.13,0,0,1,13.34,46a10.64,10.64,0,0,0,2.43,4,16.66,16.66,0,0,0,2.21-4,40.75,40.75,0,0,1-2.12-5.74A19.1,19.1,0,0,1,15.57,45.8Zm0-9.1h.09c4.36-3.09,3.63-7.14,3.63-7.14C18.63,29,16,26,16,26a36.32,36.32,0,0,1-.23,5c-.33-1.66-.58-3.32-.75-5a37.89,37.89,0,0,1-3.13,3.57A7.82,7.82,0,0,0,15.57,36.7Z" transform="translate(0 0)" fill="#FFFFFF"/></svg>
