<svg xmlns="http://www.w3.org/2000/svg" width="280" height="132.78" viewBox="0 0 280 132.78"><title>logo-folkingebrew-white</title><path d="M135.08,20.29s-5,3.35-5.52,3.73-1.78.22-3.22-.43a12.63,12.63,0,0,0-5.08-1.32c-1.87,0-5.2,1.67-9.26,6.18,0,0,2.09-10.46,10.42-10.46,3.71,0,8.5,1.89,9.39,2.14C132.28,20.26,135.08,20.29,135.08,20.29Z" transform="translate(0 0)" fill="#fff"/><path d="M128.18,26.33s-6.9,1.13-11.54,8.69a12.38,12.38,0,0,1,9.09-10,8.24,8.24,0,0,0-3.32-1.19c-1.39,0-4.57.26-9.35,5.3s-3.25,11.94-2.79,14.2,2.39,6.23,4.25,7.76c0,0,7.49-6.7,10.68-15.32a18.75,18.75,0,0,1,3.38-5.71S128.58,26.73,128.18,26.33Z" transform="translate(0 0)" fill="#fff"/><path d="M128.2,34.61s-4.73,8.25-5.42,9.2-1,.89-1,1.44S125.16,56,131.73,57c0,0,6.17-7.51,7.06-8.7s1.1-1.7,0-2.49-6.86-4.88-8.95-10.9c0,0-.7,8.61,0,10.7A21,21,0,0,1,128.2,34.61Z" transform="translate(0 0)" fill="#fff"/><path d="M121.53,49.38a23.12,23.12,0,0,0,3.29,5.37s-1.89,5.13.49,8.86a34.86,34.86,0,0,1,.9-7.61l3.63,2.33c.7.45,1,1.55.85,4.53s-2.44,7.26-5,8.51a10.33,10.33,0,0,1-6.86-9.16A24.73,24.73,0,0,1,121.53,49.38Z" transform="translate(0 0)" fill="#fff"/><path d="M111.34,49.38a9.61,9.61,0,0,0,2,2.92,9.88,9.88,0,0,0,.53,5.27s0-3.88.57-4.81c0,0,4.07-3.55,4.64-4.08s1-.06.4,1.07a31.77,31.77,0,0,0-2.23,10.08,10.5,10.5,0,0,1-3.38,6.89,20.15,20.15,0,0,1-3.58-10.54A37.28,37.28,0,0,1,111.34,49.38Z" transform="translate(0 0)" fill="#fff"/><path d="M120.29,69a9.67,9.67,0,0,0,.33,4,10.51,10.51,0,0,1,.43-3s1.53,1.32,2.29,1.85.53,1.33.43,2-.46,3.35-4.34,6.34a29.78,29.78,0,0,1-2.13-10.38,18.9,18.9,0,0,1,.7-5.84A21.69,21.69,0,0,0,120.29,69Z" transform="translate(0 0)" fill="#fff"/><path d="M131.28,67.44s.25,10.39,1.45,12l.84-12s3,4.57,5.52,6a35.89,35.89,0,0,1-5.32,18.25s-8.21-8.3-7.71-18.1C126.06,73.61,130.69,69.93,131.28,67.44Z" transform="translate(0 0)" fill="#fff"/><path d="M124.72,77A51.57,51.57,0,0,0,128,85.84a10.69,10.69,0,0,1-.8,3.39s-3.63-6.27-4.57-7.61-.8-1.25-.4-2A15.45,15.45,0,0,1,124.72,77Z" transform="translate(0 0)" fill="#fff"/><path d="M145.12,20.29s5,3.35,5.52,3.73,1.78.22,3.22-.43a12.63,12.63,0,0,1,5.08-1.32c1.87,0,5.2,1.67,9.26,6.18,0,0-2.09-10.46-10.42-10.46-3.71,0-8.5,1.89-9.39,2.14C147.92,20.26,145.12,20.29,145.12,20.29Z" transform="translate(0 0)" fill="#fff"/><path d="M151.82,26.23s6.9,1.13,11.54,8.69a12.38,12.38,0,0,0-9.09-10,8.24,8.24,0,0,1,3.32-1.19c1.39,0,4.57.26,9.35,5.3s3.25,11.94,2.79,14.2-2.39,6.23-4.25,7.76c0,0-7.49-6.7-10.68-15.32A18.44,18.44,0,0,0,151.42,30S151.42,26.63,151.82,26.23Z" transform="translate(0 0)" fill="#fff"/><path d="M152,34.61s4.73,8.25,5.42,9.2,1,.89,1,1.44S155,56,148.47,57c0,0-6.17-7.51-7.07-8.7s-1.09-1.7,0-2.49,6.87-4.88,9-10.9c0,0,.7,8.61,0,10.7A21.07,21.07,0,0,0,152,34.61Z" transform="translate(0 0)" fill="#fff"/><path d="M158.67,49.38a23.12,23.12,0,0,1-3.29,5.37s1.89,5.13-.49,8.86A34.25,34.25,0,0,0,154,56l-3.63,2.33c-.7.45-1,1.55-.85,4.53s2.44,7.26,5,8.51a10.33,10.33,0,0,0,6.86-9.16A24.84,24.84,0,0,0,158.67,49.38Z" transform="translate(0 0)" fill="#fff"/><path d="M169,49.18A9.76,9.76,0,0,1,167,52.1a9.88,9.88,0,0,1-.53,5.27s0-3.88-.57-4.81c0,0-4.07-3.54-4.64-4.07s-1-.07-.4,1.06A31.44,31.44,0,0,1,163,59.63a10.54,10.54,0,0,0,3.39,6.9A20.12,20.12,0,0,0,170,56,37.41,37.41,0,0,0,169,49.18Z" transform="translate(0 0)" fill="#fff"/><path d="M159.91,69a9.67,9.67,0,0,1-.33,4,10.86,10.86,0,0,0-.43-3s-1.53,1.32-2.29,1.85-.53,1.33-.43,2,.46,3.35,4.34,6.34a29.77,29.77,0,0,0,2.12-10.38,18.89,18.89,0,0,0-.69-5.84A21.69,21.69,0,0,1,159.91,69Z" transform="translate(0 0)" fill="#fff"/><path d="M149.71,67.44s-.25,10.39-1.44,12l-.85-12s-3,4.57-5.52,6a35.89,35.89,0,0,0,5.32,18.25s8.21-8.3,7.72-18.1C154.94,73.61,150.31,69.93,149.71,67.44Z" transform="translate(0 0)" fill="#fff"/><path d="M156.28,77A51.57,51.57,0,0,1,153,85.84a10.68,10.68,0,0,0,.79,3.39s3.63-6.27,4.58-7.61.79-1.25.4-2A15.45,15.45,0,0,0,156.28,77Z" transform="translate(0 0)" fill="#fff"/><path d="M139.54,0c.71-.07,1.09,2.42,1.17,8.07s-.19,10.56-.19,10.56a4.54,4.54,0,0,1-2.12.34s.19-4.17.19-6.32-1.1-6.51-1.1-7.73-.07-2.19,0-2.68S138.44.12,139.54,0Z" transform="translate(0 0)" fill="#fff"/><path d="M129.84,25.74S134,21.82,138.46,21c0,0,.4,9.82,1.2,11.61,0,0-.2-10,1.79-11.61A18,18,0,0,1,150,25.14s-.26,14.39-9.68,19.3C140.32,44.44,132.49,43.31,129.84,25.74Z" transform="translate(0 0)" fill="#fff"/><path d="M140,79.33s-.24,10,.33,10.79c0,0,1.36-6.76.56-10.79,0,0,2.59,8.65,4.18,11.29,0,0-2.63,6.22-4.33,7.76A20.84,20.84,0,0,1,136,90.47S139.74,83,140,79.33Z" transform="translate(0 0)" fill="#fff"/><path d="M140.32,72.21a15.38,15.38,0,0,1-7.2-14.12s4.93-5,6.17-7c0,0,1,8.39,1.49,9.73a75.29,75.29,0,0,0,.45-9.73s5.13,6,6.42,7c0,0,1.44,8-7.14,14.07" transform="translate(0 0)" fill="#fff"/><path d="M0,114.39H16.87v4H4v3.19H14.36v4H4v7.15H0Z" transform="translate(0 0)" fill="#fff"/><path d="M26.06,114.39H36.81a3.77,3.77,0,0,1,3.76,3.75V128.9a3.77,3.77,0,0,1-3.76,3.75H26.06A3.73,3.73,0,0,1,22.3,129V118.14A3.73,3.73,0,0,1,26,114.39Zm.17,4V128.7H36.59V118.35Z" transform="translate(0 0)" fill="#fff"/><path d="M47.44,132.65V114.36h3.94V128.7H65.71v4Z" transform="translate(0 0)" fill="#fff"/><path d="M84.79,114.39H88.9v1.37l-6.52,7.76,6.52,7.76v1.37H84.79l-6-7.15H75.23v7.15h-4V114.39h4v7.15H78.8l2.29-2.71Z" transform="translate(0 0)" fill="#fff"/><path d="M95.55,132.65V114.39h4v18.26Z" transform="translate(0 0)" fill="#fff"/><path d="M119.45,126.57V114.39h4v18.26h-4.06L109.1,120.43v12.22h-3.94V114.39h4.06Z" transform="translate(0 0)" fill="#fff"/><path d="M148.6,118.14v1.73h-4v-1.52H134.27V128.7h10.35V126h-4v-4h7.94v6.9a3.76,3.76,0,0,1-3.77,3.75h-10.7a3.73,3.73,0,0,1-3.76-3.68V118.14a3.73,3.73,0,0,1,3.69-3.75h10.8a3.76,3.76,0,0,1,3.78,3.74Z" transform="translate(0 0)" fill="#fff"/><path d="M172.37,114.39v4H159.49v3.19h10.37v4H159.49v3.2h12.88v4H155.5V114.39Z" transform="translate(0 0)" fill="#fff"/><path d="M196.58,118.14v3.43a3.27,3.27,0,0,1-.18,1.16,3.79,3.79,0,0,1,.89,2.39v3.78a3.76,3.76,0,0,1-3.77,3.75H179V114.39h13.8a3.77,3.77,0,0,1,3.76,3.75Zm-13.63.21v3h9.65v-3Zm0,7v3.35h10.36v-3.35Z" transform="translate(0 0)" fill="#fff"/><path d="M222.36,118.17v4.72a3.63,3.63,0,0,1-1.12,2.65,3.69,3.69,0,0,1-2.66,1.1h-.18l4,4.67v1.34h-4.1l-5.05-6H208s.08,0,.08.15a.11.11,0,0,1-.08,0v5.86h-3.93V114.41h14.49a3.81,3.81,0,0,1,3.78,3.76Zm-14.34.18v4.33h10.35v-4.33Z" transform="translate(0 0)" fill="#fff"/><path d="M246,114.39v4H233.14v3.19h10.38v4H233.14v3.2H246v4H229.16V114.39Z" transform="translate(0 0)" fill="#fff"/><path d="M275.84,114.39H280l-6.65,18.26h-3L266,120.91l-1.62,4.46-2.67,7.28h-3l-6.64-18.26h4.18l4,10.88.63-1.7,3.35-9.18h3.63l4,10.88.63-1.7Z" transform="translate(0 0)" fill="#fff"/></svg>
