<svg xmlns="http://www.w3.org/2000/svg" width="480" height="227.63" viewBox="0 0 480 227.63"><title>logo-folkingebrew-white</title><path d="M231.59,34.78s-8.57,5.75-9.47,6.4-3.05.37-5.52-.74a21.47,21.47,0,0,0-8.7-2.26C204.69,38.18,199,41,192,48.77c0,0,3.58-17.93,17.86-17.93,6.36,0,14.58,3.24,16.1,3.67C226.79,34.73,231.59,34.78,231.59,34.78Z" transform="translate(-0.02 0)" fill="#fff"/><path d="M219.76,45.14S207.93,47.07,200,60a21.23,21.23,0,0,1,15.58-17.14,14.17,14.17,0,0,0-5.69-2c-2.39,0-7.84.45-16,9.09s-5.57,20.47-4.78,24.34,4.09,10.68,7.28,13.3c0,0,12.84-11.48,18.31-26.26a32.2,32.2,0,0,1,5.79-9.79S220.44,45.82,219.76,45.14Z" transform="translate(-0.02 0)" fill="#fff"/><path d="M219.79,59.33s-8.11,14.14-9.29,15.77-1.71,1.53-1.71,2.47S214.58,96,225.84,97.71c0,0,10.58-12.87,12.11-14.91s1.88-2.91,0-4.27-11.76-8.36-15.35-18.68c0,0-1.2,14.76,0,18.34A36.1,36.1,0,0,1,219.79,59.33Z" transform="translate(-0.02 0)" fill="#fff"/><path d="M208.36,84.65A39.75,39.75,0,0,0,214,93.86s-3.24,8.79.84,15.19a59.68,59.68,0,0,1,1.54-13l6.22,4c1.2.78,1.72,2.66,1.46,7.77s-4.18,12.45-8.57,14.59a17.71,17.71,0,0,1-11.76-15.7A42.38,42.38,0,0,1,208.36,84.65Z" transform="translate(-0.02 0)" fill="#fff"/><path d="M190.89,84.65a16.43,16.43,0,0,0,3.43,5,16.87,16.87,0,0,0,.91,9s0-6.65,1-8.24c0,0,7-6.09,8-7s1.71-.1.68,1.84A54.56,54.56,0,0,0,201,102.57a18,18,0,0,1-5.79,11.81,34.59,34.59,0,0,1-6.14-18.07A63.84,63.84,0,0,1,190.89,84.65Z" transform="translate(-0.02 0)" fill="#fff"/><path d="M206.23,118.29a16.53,16.53,0,0,0,.57,6.85,17.56,17.56,0,0,1,.74-5.14s2.62,2.26,3.92,3.17.91,2.28.74,3.43-.79,5.74-7.44,10.87a51,51,0,0,1-3.65-17.8,32.26,32.26,0,0,1,1.2-10A37.11,37.11,0,0,0,206.23,118.29Z" transform="translate(-0.02 0)" fill="#fff"/><path d="M225.07,115.61s.43,17.81,2.49,20.57L229,115.61s5.14,7.84,9.46,10.29a61.45,61.45,0,0,1-9.12,31.28s-14.07-14.23-13.22-31C216.12,126.19,224.06,119.88,225.07,115.61Z" transform="translate(-0.02 0)" fill="#fff"/><path d="M213.83,132a88.08,88.08,0,0,0,5.62,15.15,18.52,18.52,0,0,1-1.37,5.82s-6.22-10.75-7.84-13.05-1.37-2.14-.68-3.43A25.94,25.94,0,0,1,213.83,132Z" transform="translate(-0.02 0)" fill="#fff"/><path d="M248.8,34.78s8.57,5.75,9.46,6.4,3.05.37,5.52-.74a21.47,21.47,0,0,1,8.71-2.26c3.21,0,8.91,2.86,15.87,10.59,0,0-3.58-17.93-17.86-17.93-6.36,0-14.57,3.24-16.1,3.67C253.6,34.73,248.8,34.78,248.8,34.78Z" transform="translate(-0.02 0)" fill="#fff"/><path d="M260.28,45s11.83,1.93,19.79,14.89a21.25,21.25,0,0,0-15.59-17.14,14.16,14.16,0,0,1,5.7-2c2.38,0,7.83.45,16,9.09s5.58,20.46,4.79,24.34-4.1,10.68-7.29,13.3c0,0-12.84-11.48-18.31-26.26a31.55,31.55,0,0,0-5.79-9.72S259.6,45.65,260.28,45Z" transform="translate(-0.02 0)" fill="#fff"/><path d="M260.59,59.33s8.11,14.14,9.29,15.77,1.72,1.53,1.72,2.47S265.74,96,254.54,97.71c0,0-10.58-12.87-12.12-14.91s-1.87-2.91,0-4.27,11.78-8.36,15.43-18.68c0,0,1.2,14.76,0,18.34A36.09,36.09,0,0,0,260.59,59.33Z" transform="translate(-0.02 0)" fill="#fff"/><path d="M272,84.65a39.75,39.75,0,0,1-5.64,9.21s3.24,8.79-.84,15.19A58.47,58.47,0,0,0,264,96l-6.22,4c-1.2.78-1.72,2.66-1.46,7.77s4.18,12.45,8.57,14.59a17.7,17.7,0,0,0,11.76-15.7A42.58,42.58,0,0,0,272,84.65Z" transform="translate(-0.02 0)" fill="#fff"/><path d="M289.74,84.31a16.69,16.69,0,0,1-3.43,5,17,17,0,0,1-.91,9s0-6.65-1-8.25c0,0-7-6.07-7.95-7s-1.72-.12-.69,1.81a53.67,53.67,0,0,1,3.67,17.28,18,18,0,0,0,5.81,11.83,34.43,34.43,0,0,0,6.19-18A64,64,0,0,0,289.74,84.31Z" transform="translate(-0.02 0)" fill="#fff"/><path d="M274.15,118.29a16.53,16.53,0,0,1-.56,6.85,19,19,0,0,0-.74-5.14s-2.62,2.26-3.93,3.17-.9,2.28-.73,3.43.79,5.74,7.44,10.87a51.21,51.21,0,0,0,3.63-17.8,32.58,32.58,0,0,0-1.18-10A37.57,37.57,0,0,1,274.15,118.29Z" transform="translate(-0.02 0)" fill="#fff"/><path d="M256.67,115.61s-.43,17.81-2.47,20.57l-1.46-20.57s-5.14,7.84-9.46,10.29a61.45,61.45,0,0,0,9.12,31.28s14.07-14.23,13.23-31C265.63,126.19,257.7,119.88,256.67,115.61Z" transform="translate(-0.02 0)" fill="#fff"/><path d="M267.93,132a88.92,88.92,0,0,1-5.62,15.15,18.49,18.49,0,0,0,1.35,5.82s6.22-10.75,7.85-13.05,1.36-2.14.69-3.43A26.32,26.32,0,0,0,267.93,132Z" transform="translate(-0.02 0)" fill="#fff"/><path d="M239.23,0c1.22-.12,1.87,4.15,2,13.83s-.33,18.11-.33,18.11a7.76,7.76,0,0,1-3.63.58s.32-7.15.32-10.83-1.88-11.16-1.88-13.26-.12-3.75,0-4.59S237.35.21,239.23,0Z" transform="translate(-0.02 0)" fill="#fff"/><path d="M222.6,44.13s7.14-6.72,14.78-8.13c0,0,.69,16.83,2.06,19.9,0,0-.34-17.14,3.07-19.9a30.8,30.8,0,0,1,14.65,7.1s-.44,24.67-16.59,33.08C240.57,76.18,227.15,74.25,222.6,44.13Z" transform="translate(-0.02 0)" fill="#fff"/><path d="M240,136s-.41,17.15.57,18.5c0,0,2.33-11.59,1-18.5,0,0,4.44,14.83,7.16,19.36,0,0-4.51,10.66-7.42,13.3a35.83,35.83,0,0,1-8.13-13.56S239.58,142.29,240,136Z" transform="translate(-0.02 0)" fill="#fff"/><path d="M240.57,123.79a26.37,26.37,0,0,1-12.34-24.21s8.45-8.57,10.57-12c0,0,1.72,14.39,2.56,16.68a129,129,0,0,0,.77-16.68s8.79,10.29,11,12c0,0,2.46,13.72-12.24,24.12" transform="translate(-0.02 0)" fill="#fff"/><path d="M0,196.1H28.94V203H6.88v5.47H24.64v6.86H6.88v12.26H0Z" transform="translate(-0.02 0)" fill="#fff"/><path d="M44.7,196.1H63.12a6.47,6.47,0,0,1,6.45,6.43V221a6.47,6.47,0,0,1-6.45,6.43H44.7a6.39,6.39,0,0,1-6.45-6.26V202.53a6.39,6.39,0,0,1,6.34-6.43ZM45,203v17.68H62.75V202.89Z" transform="translate(-0.02 0)" fill="#fff"/><path d="M81.35,227.4V196.05H88.1v24.58h24.57v6.86Z" transform="translate(-0.02 0)" fill="#fff"/><path d="M145.38,196.1h7v2.35l-11.18,13.3,11.18,13.3v2.35h-7l-10.29-12.26H129V227.4h-6.86V196.1H129v12.25h6.12l3.92-4.64Z" transform="translate(-0.02 0)" fill="#fff"/><path d="M163.82,227.4V196.1h6.86v31.3Z" transform="translate(-0.02 0)" fill="#fff"/><path d="M204.79,217V196.1h6.86v31.3h-7l-17.64-21v21H180.3V196.1h7Z" transform="translate(-0.02 0)" fill="#fff"/><path d="M254.76,202.53v3h-6.85v-2.6H230.2v17.74h17.74V216h-6.86v-6.86H254.7V221a6.45,6.45,0,0,1-6.47,6.43H229.89a6.4,6.4,0,0,1-6.45-6.31V202.53a6.4,6.4,0,0,1,6.33-6.43h18.51a6.44,6.44,0,0,1,6.48,6.41h0Z" transform="translate(-0.02 0)" fill="#fff"/><path d="M295.51,196.1V203H273.43v5.47h17.78v6.86H273.43v5.49h22.08v6.85H266.59V196.1Z" transform="translate(-0.02 0)" fill="#fff"/><path d="M337,202.53v5.88a5.78,5.78,0,0,1-.31,2,6.54,6.54,0,0,1,1.52,4.1V221a6.44,6.44,0,0,1-6.46,6.43H306.88V196.1h23.66a6.47,6.47,0,0,1,6.44,6.43Zm-23.37.36V208h16.54v-5.14Zm0,12v5.74h17.76v-5.74Z" transform="translate(-0.02 0)" fill="#fff"/><path d="M381.21,202.58v8.09a6.22,6.22,0,0,1-1.92,4.54,6.35,6.35,0,0,1-4.56,1.89h-.31l6.86,8v2.3h-7l-8.66-10.29h-9s.14,0,.14.26a.17.17,0,0,1-.14,0v10h-6.73V196.13H374.7a6.54,6.54,0,0,1,6.48,6.45Zm-24.58.31v7.42h17.74v-7.42Z" transform="translate(-0.02 0)" fill="#fff"/><path d="M421.74,196.1V203H399.69v5.47h17.79v6.86H399.69v5.49h22.05v6.85H392.87V196.1Z" transform="translate(-0.02 0)" fill="#fff"/><path d="M472.89,196.1H480l-11.4,31.3h-5.14L456,207.27l-2.78,7.65-4.57,12.48h-5.15l-11.38-31.3h7.17l6.85,18.65,1.08-2.92L453,196.1h6.22l6.86,18.65,1.08-2.92Z" transform="translate(-0.02 0)" fill="#fff"/></svg>
