<svg xmlns="http://www.w3.org/2000/svg" width="320" height="151.67" viewBox="0 0 320 151.67"><path d="M138.58,25.43a14.51,14.51,0,0,1,5.81,1.51c1.64.71,3.09.92,3.68.5s6.31-4.27,6.31-4.27a30.27,30.27,0,0,1-3.75-.18c-1-.29-6.49-2.45-10.72-2.45-9.52,0-11.91,12-11.91,12C132.64,27.34,136.45,25.43,138.58,25.43Zm-7.7,33s8.53-7.65,12.2-17.51c2-4.77,3.87-6.52,3.87-6.52s0-3.86-.45-4.31c0,0-7.89,1.28-13.2,10a14.14,14.14,0,0,1,10.39-11.38,9.4,9.4,0,0,0-3.79-1.36c-1.6,0-5.23.3-10.67,6.06S125.52,47,126.05,49.58,128.75,56.68,130.88,58.42Zm27.73-3.26c1-1.36,1.25-1.93,0-2.84s-7.82-5.57-10.23-12.45c0,0-.8,9.83,0,12.22a24,24,0,0,1-1.89-12.56S141.09,49,140.3,50s-1.09,1-1.09,1.65S143.05,64,150.55,65.11c0,0,7-8.58,8.07-10Zm-19.72,1.26a28.18,28.18,0,0,0-3.13,14.67,11.83,11.83,0,0,0,7.82,10.46c2.95-1.43,5.57-6.32,5.74-9.73s-.17-4.66-1-5.17L144.24,64a39.59,39.59,0,0,0-1,8.7c-2.73-4.27-.57-10.12-.57-10.12a26.5,26.5,0,0,1-3.76-6.14Zm-2.29.45c.72-1.29.19-1.82-.46-1.21s-5.3,4.62-5.3,4.62c-.6,1.06-.64,5.49-.64,5.49a11.21,11.21,0,0,1-.6-6,11.12,11.12,0,0,1-2.35-3.33,42.24,42.24,0,0,0-1.14,7.76,22.9,22.9,0,0,0,4.09,12.09,12,12,0,0,0,3.87-7.88A36.44,36.44,0,0,1,136.6,56.87ZM141,82c-.87-.6-2.61-2.13-2.61-2.13a12.12,12.12,0,0,0-.5,3.49c-.71-1.48-.38-4.56-.38-4.56A24.41,24.41,0,0,1,134.86,73a21.37,21.37,0,0,0-.79,6.67,34,34,0,0,0,2.42,11.87c4.43-3.42,4.85-6.48,5-7.24s.36-1.7-.51-2.3Zm18,2c-2.84-1.65-6.31-6.87-6.31-6.87l-1,13.76C150.32,89,150,77.09,150,77.09c-.71,2.84-6,7-6,7-.57,11.13,8.82,20.65,8.82,20.65A41,41,0,0,0,159,83.93Zm-19.27,7c-.45.91-.63.8.46,2.33s5.22,8.7,5.22,8.7a12.28,12.28,0,0,0,.91-3.87C144.36,94.65,142.54,88,142.54,88a17.75,17.75,0,0,0-2.85,2.93Zm36.15-64a14.51,14.51,0,0,1,5.81-1.51c2.13,0,5.94,1.91,10.58,7.07,0,0-2.39-12-11.91-12-4.23,0-9.72,2.14-10.73,2.45a37.3,37.3,0,0,1-3.74.18s5.69,3.84,6.31,4.27,2.06.26,3.68-.52Zm13.32,31.33c2.13-1.74,4.32-6.28,4.85-8.86s2.27-10.46-3.18-16.22-9.1-6.07-10.67-6.07a9.49,9.49,0,0,0-3.79,1.37,14.11,14.11,0,0,1,10.38,11.37C181.39,31.27,173.51,30,173.51,30c-.45.46-.45,4.32-.45,4.32s1.82,1.74,3.86,6.52C180.56,50.66,189.16,58.29,189.16,58.29ZM181,51.68c0-.63-.29-.57-1.08-1.65s-6.2-10.52-6.2-10.52a24,24,0,0,1-1.87,12.57c.79-2.39,0-12.23,0-12.23-2.43,6.9-9,11.56-10.27,12.47s-1,1.48,0,2.84,8.07,10,8.07,10C177.18,64,181,52.32,181,51.69Zm-4.38,29.87a11.83,11.83,0,0,0,7.82-10.46,28.28,28.28,0,0,0-3.14-14.67,26.12,26.12,0,0,1-3.75,6.14s2.13,5.86-.57,10.12a40.25,40.25,0,0,0-1-8.7l-4.15,2.68c-.8.51-1.14,1.76-1,5.17s2.79,8.29,5.74,9.72Zm14.13-22a11.25,11.25,0,0,1-.6,6s0-4.43-.64-5.49c0,0-4.66-4.06-5.31-4.67s-1.14-.08-.46,1.22a36,36,0,0,1,2.54,11.52A12.05,12.05,0,0,0,190.18,76a22.89,22.89,0,0,0,4.06-12,43.13,43.13,0,0,0-1.14-7.82,11,11,0,0,1-2.35,3.36Zm-8,19.27s.34,3.08-.39,4.55a11.76,11.76,0,0,0-.49-3.48s-1.74,1.51-2.62,2.13-.6,1.52-.49,2.28.54,3.82,5,7.24a34,34,0,0,0,2.41-11.86,21.58,21.58,0,0,0-.79-6.67A24.28,24.28,0,0,1,182.76,78.77Zm-5.69,5.33s-5.29-4.2-6-7c0,0-.28,11.89-1.65,13.76l-1-13.76s-3.47,5.23-6.3,6.88c0,0-.46,9.89,6.08,20.86C168.26,104.79,177.64,95.27,177.07,84.1ZM178.6,88s-1.82,6.65-3.74,10.12a12.33,12.33,0,0,0,.9,3.87s4.15-7.17,5.23-8.71.91-1.42.46-2.32A18.24,18.24,0,0,0,178.6,88ZM158.39,14.43c0,2.47-.22,7.23-.22,7.23a5.32,5.32,0,0,0,2.43-.39s.3-5.62.21-12.09-.52-9.3-1.34-9.24c-1.25.13-2.25,2-2.34,2.55s0,1.69,0,3.07S158.39,12,158.39,14.43Zm1.22,22.76c-.91-2-1.37-13.27-1.37-13.27-5.07,1-9.85,5.46-9.85,5.46,3,20.09,12,21.38,12,21.38,10.77-5.61,11.07-22,11.07-22a20.63,20.63,0,0,0-9.77-4.78c-2.28,1.82-2,13.27-2,13.27Zm.75,65.78c-.64-1-.37-12.34-.37-12.34-.29,4.2-4.61,12.73-4.61,12.73a23.83,23.83,0,0,0,5.46,9c1.93-1.76,5-8.87,5-8.87-1.82-3-4.78-12.9-4.78-12.9.88,4.64-.68,12.35-.68,12.35Zm0-20.48h.22c9.81-6.93,8.16-16.08,8.16-16.08-1.48-1.18-7.32-8-7.32-8a83.79,83.79,0,0,1-.51,11.13c-.63-1.54-1.71-11.13-1.71-11.13-1.42,2.24-7,7.94-7,7.94a17.58,17.58,0,0,0,8.2,16.15Z" transform="translate(0 0.06)" fill="#55b948"/><path d="M0,151.58H4.55v-8.17H16.41v-4.53H4.55v-3.65H19.29v-4.52H0Zm42.08-20.87H29.78A4.27,4.27,0,0,0,25.51,135v12.3a4.27,4.27,0,0,0,4.27,4.26h12.3a4.26,4.26,0,0,0,4.26-4.26V135a4.31,4.31,0,0,0-4.26-4.27Zm-.27,16.35H30V135.23H41.81Zm16.91-16.35h-4.5v20.9H75.1v-4.52H58.74Zm34,5.09-2.61,3.11H86v-8.18H81.45v20.88H86v-8.18h4.09l6.84,8.18h4.7V150l-7.45-8.88,7.45-8.9v-1.57H96.9Zm16.53,15.81h4.52v-20.9H109.2Zm27.33-7-11.68-13.92h-4.67v20.87h4.5v-14l11.74,14h4.64V130.71h-4.53Zm29-13.92H153.24A4.26,4.26,0,0,0,149,135v12.3a4.26,4.26,0,0,0,4.26,4.26h12.27a4.27,4.27,0,0,0,4.32-4.21v-7.91h-9.08v4.52h4.53v3.13H153.44V135.23h11.84V137h4.55v-2a4.32,4.32,0,0,0-4.32-4.27Zm12.21,20.87H197v-4.52H182.27v-3.65h11.86v-4.53H182.27v-3.65H197v-4.52H177.71Zm46.93-12.67V135a4.31,4.31,0,0,0-4.27-4.27H204.59v20.88h16.57a4.3,4.3,0,0,0,4.31-4.29V143a4.29,4.29,0,0,0-1-2.72,3.74,3.74,0,0,0,.2-1.37Zm-15.6-3.68h11v3.48h-11Zm11.83,11.83H209.07v-3.82H220.9Zm28.88-16.35H233.24v20.85h4.5v-6.7h.08c0-.12,0-.17-.08-.17h6l5.77,6.87h4.64V150l-4.52-5.34h.2a4.14,4.14,0,0,0,3-1.26,4.1,4.1,0,0,0,1.28-3V135a4.08,4.08,0,0,0-1.28-3,4.22,4.22,0,0,0-3-1.25Zm-.23,9.45H237.74v-5H249.6Zm12.32,11.38h19.3V147H266.45v-3.66H278.3v-4.52H266.45v-3.65h14.72v-4.53H261.9Zm53.34-20.88-3.83,10.5-.71,2-4.58-12.45h-4.15l-3.83,10.5-.71,2-4.56-12.45h-4.78l7.6,20.88h3.45l3-8.32,1.86-5.1,4.93,13.42h3.45L320,130.71Z" transform="translate(0 0.06)" fill="#fff"/></svg>
