<svg xmlns="http://www.w3.org/2000/svg" width="50" height="13.51" viewBox="0 0 50 13.51"><path d="M14.71,0a1.75,1.75,0,0,0-1.9,1.6V11.87a1.75,1.75,0,0,0,1.9,1.6,1.78,1.78,0,0,0,1.92-1.6V1.6A1.78,1.78,0,0,0,14.71,0ZM8.65.08A1.74,1.74,0,0,0,6.76,1.67v4L3.52.84l0,0L3.44.74A1.73,1.73,0,0,0,2,.08H1.89A1.74,1.74,0,0,0,0,1.67V11.91A1.74,1.74,0,0,0,1.89,13.5,1.77,1.77,0,0,0,3.8,11.91v-4l3.09,4.57a1.51,1.51,0,0,0,.49.61,1.83,1.83,0,0,0,1.17.41h.1a1.78,1.78,0,0,0,1.92-1.59V1.67A1.78,1.78,0,0,0,8.65.08Z" transform="translate(0 0)" fill="#fff"/><path d="M36.22.15a2.46,2.46,0,0,0-.85.16l-2.25.8a2,2,0,0,0-1,2.61A2.16,2.16,0,0,0,34,5.21h.08v6.35a2,2,0,0,0,2.12,1.84,2,2,0,0,0,2.14-1.84V2A2,2,0,0,0,36.22.15Zm0,12.38c-.7,0-1.25-.42-1.25-1V4l-.71.26a.59.59,0,0,1-.23,0,1.3,1.3,0,0,1-1.11-.91,1.13,1.13,0,0,1,.5-1.5l2.25-.81a1.68,1.68,0,0,1,.55-.1,1.15,1.15,0,0,1,1.27,1v9.57A1.15,1.15,0,0,1,36.22,12.53ZM48.7,6a3.65,3.65,0,0,0,.63-2,4.14,4.14,0,0,0-8.26,0,3.62,3.62,0,0,0,.63,2,4.27,4.27,0,0,0-1.3,3A4.82,4.82,0,0,0,50,9,4.27,4.27,0,0,0,48.7,6Zm-3.5,6.58A3.76,3.76,0,0,1,41.27,9a3.41,3.41,0,0,1,1.3-2.62l.33-.28-.28-.34A2.74,2.74,0,0,1,41.94,4a3.28,3.28,0,0,1,6.52,0,2.74,2.74,0,0,1-.68,1.79l-.29.34.34.27A3.4,3.4,0,0,1,49.13,9,3.76,3.76,0,0,1,45.2,12.57Z" transform="translate(0 0)" fill="#fff"/><path d="M23,7.82a1.44,1.44,0,0,1-.47-1,1.36,1.36,0,0,1,.55-1.12l1-1L24.75,4,22,1.05A2,2,0,0,0,20.53.24a2.21,2.21,0,0,0-1.42.62,1.78,1.78,0,0,0,0,2.66l3.08,3.31-3.09,3.34a1.84,1.84,0,0,0,.11,2.69,1.76,1.76,0,0,0,1.21.5,2.4,2.4,0,0,0,1.55-.7l2.75-3L23,7.82Z" transform="translate(0 0)" fill="#fff"/><path d="M30.55.78h0A2.29,2.29,0,0,0,29.08.15,2,2,0,0,0,27.54,1L24.09,4.7l-1,1a1.36,1.36,0,0,0-.55,1.12,1.44,1.44,0,0,0,.47,1l4.55,4.91a2.43,2.43,0,0,0,1.61.72,1.86,1.86,0,0,0,1.28-.52,1.92,1.92,0,0,0,.1-2.82l-3-3.28,3-3.23A1.88,1.88,0,0,0,30.55.78Zm-4,6L30,10.61a1.17,1.17,0,0,1-.06,1.77,1.09,1.09,0,0,1-.77.33,1.67,1.67,0,0,1-1.07-.49L23.53,7.28h0a.63.63,0,0,1-.23-.44c0-.12,0-.31.3-.55l4.5-4.81h0a1.3,1.3,0,0,1,1-.57,1.48,1.48,0,0,1,.94.42,1.15,1.15,0,0,1,0,1.77L26.52,6.82Z" transform="translate(0 0)" fill="#fff"/></svg>
