<?xml version="1.0" encoding="utf-8"?>
<!-- Generator: Adobe Illustrator 21.0.0, SVG Export Plug-In . SVG Version: 6.00 Build 0)  -->
<svg version="1.1" id="Layer_1" xmlns="http://www.w3.org/2000/svg" xmlns:xlink="http://www.w3.org/1999/xlink" x="0px" y="0px"
	 viewBox="0 0 78 126.5" style="enable-background:new 0 0 78 126.5;" xml:space="preserve">
<style type="text/css">
	.st0{fill:#009444;}
</style>
<title>logo-folkingebrew</title>
<path class="st0" d="M32.7,26.1c0,0-6.4,4.3-7.1,4.8c-0.7,0.5-2.3,0.3-4.1-0.6c-1.8-0.8-4.1-1.7-6.5-1.7s-6.7,2.1-11.9,8
	c0,0,2.7-13.5,13.4-13.5c4.8,0,10.9,2.4,12.1,2.7C29.1,26.1,32.7,26.1,32.7,26.1z"/>
<path class="st0" d="M23.8,33.9c0,0-8.9,1.5-14.8,11.2c0,0,1.2-10,11.7-12.8c0,0-2.5-1.5-4.3-1.5s-5.9,0.3-12,6.8S0.2,52.9,0.8,55.8
	s3.1,8,5.5,10c0,0,9.6-8.6,13.7-19.7c2.3-5.4,4.3-7.3,4.3-7.3S24.3,34.4,23.8,33.9z"/>
<path class="st0" d="M23.8,44.5c0,0-6.1,10.6-7,11.8c-0.9,1.2-1.2,1.2-1.2,1.9S19.9,72,28.4,73.3c0,0,7.9-9.7,9.1-11.2
	c1.2-1.5,1.4-2.2,0-3.2c-1.4-1-8.8-6.3-11.5-14c0,0-0.9,11.1,0,13.8C25.9,58.6,22.9,52.6,23.8,44.5z"/>
<path class="st0" d="M15.2,63.5c0,0,1.6,3.8,4.2,6.9c0,0-2.4,6.6,0.6,11.4c0,0,0.1-6.3,1.2-9.8l4.7,3c0.9,0.6,1.3,2,1.1,5.8
	s-3.1,9.3-6.5,10.9c0,0-8.2-2.5-8.8-11.8S15.2,63.5,15.2,63.5z"/>
<path class="st0" d="M2.1,63.5c0.6,1.4,1.5,2.7,2.6,3.8c0,0-0.7,3.8,0.7,6.8c0,0,0-5,0.7-6.2c0,0,5.2-4.6,6-5.2
	c0.7-0.7,1.3-0.1,0.5,1.4c-0.8,1.5-2.6,7.6-2.9,13s-4.3,8.9-4.3,8.9s-4.2-5.4-4.6-13.6C0.9,68.8,2.1,63.5,2.1,63.5z"/>
<path class="st0" d="M13.6,88.7c0,0-0.4,3.5,0.4,5.1c-0.1-0.3,0.2-3.2,0.6-3.9c0,0,2,1.7,2.9,2.4s0.7,1.7,0.6,2.6s-0.6,4.3-5.6,8.1
	c0,0-2.5-5.5-2.7-13.3c0-3.4,0.4-6.6,0.9-7.5C11.4,84.4,12.4,86.6,13.6,88.7z"/>
<path class="st0" d="M27.8,86.7c0,0,0.3,13.4,1.9,15.5l1.1-15.5c0,0,3.9,5.9,7.1,7.7c0,0,0.5,11.1-6.8,23.5c0,0-10.6-10.7-9.9-23.3
	C21.1,94.7,27,89.9,27.8,86.7z"/>
<path class="st0" d="M19.3,99c0,0,2,7.5,4.2,11.4c-0.1,1.5-0.5,3-1,4.3c0,0-4.7-8.1-5.9-9.8c-1.2-1.7-1-1.6-0.5-2.6
	C16.7,101.3,19.3,99,19.3,99z"/>
<path class="st0" d="M45.6,26.1c0,0,6.4,4.3,7.1,4.8c0.7,0.5,2.3,0.3,4.1-0.6s4.1-1.7,6.5-1.7c2.4,0,6.7,2.1,11.9,8
	c0,0-2.7-13.5-13.4-13.5c-4.8,0-10.9,2.4-12.1,2.7C49.2,26.1,45.6,26.1,45.6,26.1z"/>
<path class="st0" d="M54.2,33.7c0,0,8.9,1.5,14.8,11.2c0,0-1.2-10-11.7-12.8c0,0,2.5-1.5,4.3-1.5c1.8,0,5.9,0.3,12,6.8
	c6.1,6.5,4.2,15.4,3.6,18.2s-3.1,8-5.5,10c0,0-9.6-8.6-13.7-19.7c-2.3-5.4-4.3-7.3-4.3-7.3S53.7,34.3,54.2,33.7z"/>
<path class="st0" d="M54.4,44.5c0,0,6.1,10.6,7,11.8s1.2,1.2,1.2,1.9S58.3,72,49.9,73.3c0,0-7.9-9.7-9.1-11.2
	c-1.2-1.5-1.4-2.2,0-3.2c1.4-1,8.8-6.3,11.5-14c0,0,0.9,11.1,0,13.8C52.3,58.6,55.4,52.6,54.4,44.5z"/>
<path class="st0" d="M63,63.5c0,0-1.6,3.8-4.2,6.9c0,0,2.4,6.6-0.6,11.4c0,0-0.1-6.3-1.2-9.8l-4.7,3c-0.9,0.6-1.3,2-1.1,5.8
	c0.2,3.8,3.1,9.3,6.5,10.9c0,0,8.2-2.5,8.8-11.8C67.1,70.7,63,63.5,63,63.5z"/>
<path class="st0" d="M76.2,63.3c-0.6,1.4-1.5,2.7-2.6,3.8c0,0,0.7,3.8-0.7,6.8c0,0,0-5-0.7-6.2c0,0-5.2-4.6-6-5.2
	c-0.7-0.7-1.3-0.1-0.5,1.4s2.6,7.6,2.9,13c0.2,5.3,4.3,8.9,4.3,8.9s4.2-5.4,4.6-13.6C77.5,68.6,76.2,63.3,76.2,63.3z"/>
<path class="st0" d="M64.6,88.7c0,0,0.4,3.5-0.4,5.1c0.1-0.3-0.2-3.2-0.6-3.9c0,0-2,1.7-2.9,2.4c-1,0.7-0.7,1.7-0.6,2.6
	c0.1,0.9,0.6,4.3,5.6,8.1c0,0,2.5-5.5,2.7-13.3c0-3.4-0.4-6.6-0.9-7.5C66.8,84.4,65.8,86.6,64.6,88.7z"/>
<path class="st0" d="M51.5,86.7c0,0-0.3,13.4-1.9,15.5l-1.1-15.5c0,0-3.9,5.9-7.1,7.7c0,0-0.5,11.1,6.8,23.5c0,0,10.6-10.7,9.9-23.3
	C58.2,94.7,52.2,89.9,51.5,86.7z"/>
<path class="st0" d="M59.9,99c0,0-2,7.5-4.2,11.4c0.1,1.5,0.5,3,1,4.3c0,0,4.7-8.1,5.9-9.8c1.2-1.7,1-1.6,0.5-2.6
	C62.6,101.3,59.9,99,59.9,99z"/>
<path class="st0" d="M38.4,0c0.9-0.1,1.4,3.1,1.5,10.4C40,17.6,39.7,24,39.7,24s-0.9,0.5-2.7,0.4c0,0,0.2-5.4,0.2-8.1
	s-1.4-8.4-1.4-9.9s-0.1-2.8,0-3.5S37,0.2,38.4,0z"/>
<path class="st0" d="M25.9,33.1c0,0,5.4-5,11.1-6.1c0,0,0.5,12.6,1.5,14.9c0,0-0.3-12.9,2.3-14.9c0,0,5.5,0.7,11,5.4
	c0,0-0.3,18.5-12.5,24.8C39.4,57.1,29.3,55.7,25.9,33.1z"/>
<path class="st0" d="M39,102c0,0-0.3,12.8,0.4,13.9c0,0,1.7-8.7,0.7-13.9c0,0,3.3,11.1,5.4,14.5c0,0-3.4,8-5.6,10
	c0,0-3.9-3.6-6.1-10.2C33.8,116.3,38.7,106.7,39,102z"/>
<path class="st0" d="M39.4,92.9c0,0-10-5.6-9.3-18.2c0,0,6.3-6.4,7.9-8.9c0,0,1.2,10.8,1.9,12.5c0,0,0.9-8.3,0.6-12.5
	c0,0,6.6,7.7,8.3,9c0,0,1.9,10.3-9.2,18.1"/>
</svg>
