<?xml version="1.0" encoding="utf-8"?>
<!-- Generator: Adobe Illustrator 21.0.0, SVG Export Plug-In . SVG Version: 6.00 Build 0)  -->
<svg version="1.1" id="Layer_1" xmlns="http://www.w3.org/2000/svg" xmlns:xlink="http://www.w3.org/1999/xlink" x="0px" y="0px"
	 viewBox="0 0 360 23.5" style="enable-background:new 0 0 360 23.5;" xml:space="preserve">
<style type="text/css">
	.st0{fill:#FFFFFF;}
</style>
<title>logo-folkingebrew</title>
<path class="st0" d="M0,0h21.7v5.1H5.1v4.1h13.3v5.1H5.1v9.2H0V0z"/>
<path class="st0" d="M33.5,0h13.8c2.7,0,4.8,2.2,4.8,4.8v13.8c0,2.7-2.2,4.8-4.8,4.8H33.5c-2.6,0-4.8-2.1-4.8-4.8c0,0,0-0.1,0-0.1
	V4.8C28.7,2.2,30.8,0,33.5,0C33.5,0,33.5,0,33.5,0L33.5,0z M33.7,5.1v13.3H47V5.1H33.7z"/>
<path class="st0" d="M61,23.5V0h5.1v18.4h18.4v5.1L61,23.5z"/>
<path class="st0" d="M109,0h5.3v1.8l-8.4,10l8.4,10v1.8H109l-7.7-9.2h-4.6v9.2h-5.1V0h5.1v9.2h4.6l2.9-3.5L109,0z"/>
<path class="st0" d="M122.9,23.5V0h5.1v23.5H122.9z"/>
<path class="st0" d="M153.6,15.7V0h5.1v23.5h-5.2L140.3,7.8v15.7h-5.1V0h5.2L153.6,15.7z"/>
<path class="st0" d="M191.1,4.8v2.2h-5.1v-2h-13.3v13.3h13.3v-3.5h-5.1V9.8h10.2v8.9c0,2.7-2.2,4.8-4.9,4.8c0,0,0,0,0,0h-13.8
	c-2.6,0-4.8-2.1-4.8-4.8c0,0,0-0.1,0-0.1V4.8c0-2.6,2.1-4.8,4.8-4.8c0,0,0.1,0,0.1,0h13.8C188.9,0,191,2.1,191.1,4.8
	C191.1,4.8,191.1,4.8,191.1,4.8L191.1,4.8z"/>
<path class="st0" d="M221.6,0v5.1h-16.6v4.1h13.3v5.1h-13.3v4.1h16.6v5.1h-21.7V0H221.6z"/>
<path class="st0" d="M252.7,4.8v4.4c0,0.5-0.1,1-0.2,1.5c0.8,1,1.1,2,1.1,3.1v4.9c0,2.7-2.2,4.8-4.9,4.8c0,0,0,0,0,0h-18.6V0h17.7
	C250.6,0,252.7,2.2,252.7,4.8z M235.2,5.1V9h12.4V5.1H235.2z M235.2,14.1v4.3h13.3v-4.3H235.2z"/>
<path class="st0" d="M285.9,4.9v6.1c0,1.3-0.5,2.5-1.4,3.4c-0.9,0.9-2.1,1.4-3.4,1.4h-0.2l5.1,6v1.7h-5.2l-6.5-7.7l-6.7,0
	c0.1,0,0.1,0.1,0.1,0.2c0,0-0.1,0-0.1,0v7.5h-5.1V0H281c1.3,0,2.5,0.5,3.4,1.4C285.4,2.3,285.9,3.6,285.9,4.9z M267.5,5.1v5.6h13.3
	V5.1H267.5z"/>
<path class="st0" d="M316.3,0v5.1h-16.6v4.1h13.3v5.1h-13.3v4.1h16.6v5.1h-21.7V0H316.3z"/>
<path class="st0" d="M354.7,0h5.3l-8.5,23.5h-3.9L342,8.4l-2.1,5.7l-3.4,9.4h-3.9L324.1,0h5.4l5.1,14l0.8-2.2L339.7,0h4.7l5.2,14
	l0.8-2.2L354.7,0z"/>
</svg>
