<svg xmlns="http://www.w3.org/2000/svg" viewBox="0 0 360 170.56"><defs><style>.cls-1{fill:#009444;}.cls-2{fill:#fff;}</style></defs><title>Asset 1</title><g id="Layer_2" data-name="Layer 2"><g id="Layer_1-2" data-name="Layer 1"><path class="cls-1" d="M173.67,26.09s-6.43,4.31-7.1,4.8-2.3.28-4.14-.56a16.21,16.21,0,0,0-6.54-1.7c-2.4,0-6.69,2.14-11.9,8,0,0,2.69-13.45,13.4-13.45,4.76,0,10.93,2.43,12.07,2.75C170.07,26,173.67,26.09,173.67,26.09Z"/><path class="cls-1" d="M164.81,33.86S155.94,35.3,150,45a15.89,15.89,0,0,1,11.68-12.79,10.54,10.54,0,0,0-4.26-1.53c-1.79,0-5.88.34-12,6.82s-4.18,15.35-3.58,18.25,3.07,8,5.46,10c0,0,9.64-8.61,13.73-19.7,2.3-5.37,4.35-7.33,4.35-7.33S165.32,34.37,164.81,33.86Z"/><path class="cls-1" d="M164.83,44.49s-6.08,10.62-7,11.83-1.22,1.15-1.22,1.85S160.93,72,169.37,73.27c0,0,7.93-9.66,9.08-11.19s1.41-2.17,0-3.2-8.83-6.27-11.51-14c0,0-.9,11.06,0,13.75A27,27,0,0,1,164.83,44.49Z"/><path class="cls-1" d="M156.26,63.49a29.78,29.78,0,0,0,4.22,6.91S158,77,161.12,81.78c0,0,.06-6.27,1.15-9.79l4.67,3c.9.58,1.28,2,1.09,5.82s-3.14,9.34-6.46,10.94A13.29,13.29,0,0,1,152.74,80,31.88,31.88,0,0,1,156.26,63.49Z"/><path class="cls-1" d="M143.15,63.49a12.41,12.41,0,0,0,2.64,3.75,12.67,12.67,0,0,0,.68,6.78s0-5,.72-6.18c0,0,5.24-4.56,6-5.24s1.28-.09.52,1.36a41.11,41.11,0,0,0-2.86,13,13.55,13.55,0,0,1-4.35,8.87,25.79,25.79,0,0,1-4.6-13.56A48.45,48.45,0,0,1,143.15,63.49Z"/><path class="cls-1" d="M154.66,88.65s-.38,3.45.43,5.12a13.58,13.58,0,0,1,.55-3.92s2,1.71,2.94,2.39.68,1.71.55,2.56-.6,4.31-5.59,8.14a38.35,38.35,0,0,1-2.73-13.35c0-3.37.43-6.57.9-7.5A27.74,27.74,0,0,0,154.66,88.65Z"/><path class="cls-1" d="M168.79,86.71s.32,13.37,1.85,15.48l1.09-15.48s3.9,5.88,7.1,7.74c0,0,.51,11.13-6.84,23.47,0,0-10.55-10.68-9.91-23.28C162.08,94.64,168,89.9,168.79,86.71Z"/><path class="cls-1" d="M160.35,99s2,7.48,4.22,11.38a14,14,0,0,1-1,4.35s-4.67-8.06-5.88-9.79-1-1.6-.51-2.62A20.25,20.25,0,0,1,160.35,99Z"/><path class="cls-1" d="M186.58,26.09s6.43,4.31,7.1,4.8,2.3.28,4.14-.56a16.21,16.21,0,0,1,6.54-1.7c2.4,0,6.69,2.14,11.9,8,0,0-2.69-13.45-13.4-13.45-4.76,0-10.93,2.43-12.07,2.75C190.19,26,186.58,26.09,186.58,26.09Z"/><path class="cls-1" d="M195.19,33.73S204.06,35.18,210,44.9a15.89,15.89,0,0,0-11.68-12.79,10.54,10.54,0,0,1,4.26-1.53c1.79,0,5.88.34,12,6.82s4.18,15.35,3.58,18.25-3.07,8-5.46,10c0,0-9.64-8.61-13.73-19.7-2.3-5.37-4.35-7.33-4.35-7.33S194.68,34.24,195.19,33.73Z"/><path class="cls-1" d="M195.43,44.49s6.08,10.62,7,11.83,1.22,1.15,1.22,1.85S199.33,72,190.89,73.27c0,0-7.93-9.66-9.08-11.19s-1.41-2.17,0-3.2,8.83-6.27,11.51-14c0,0,.9,11.06,0,13.75A27,27,0,0,0,195.43,44.49Z"/><path class="cls-1" d="M204,63.49a29.78,29.78,0,0,1-4.22,6.91s2.43,6.59-.64,11.38c0,0-.06-6.27-1.15-9.79l-4.67,3c-.9.58-1.28,2-1.09,5.82s3.14,9.34,6.46,10.94A13.29,13.29,0,0,0,207.52,80,31.88,31.88,0,0,0,204,63.49Z"/><path class="cls-1" d="M217.24,63.23A12.41,12.41,0,0,1,214.6,67a12.67,12.67,0,0,1-.68,6.78s0-5-.72-6.18c0,0-5.24-4.56-6-5.24s-1.28-.09-.52,1.36a41.11,41.11,0,0,1,2.86,13,13.55,13.55,0,0,0,4.35,8.87A25.79,25.79,0,0,0,218.52,72,48.45,48.45,0,0,0,217.24,63.23Z"/><path class="cls-1" d="M205.6,88.65s.38,3.45-.43,5.12a13.58,13.58,0,0,0-.55-3.92s-2,1.71-2.94,2.39-.68,1.71-.55,2.56.6,4.31,5.59,8.14a38.35,38.35,0,0,0,2.73-13.35c0-3.37-.43-6.57-.9-7.5A27.74,27.74,0,0,1,205.6,88.65Z"/><path class="cls-1" d="M192.49,86.71s-.32,13.37-1.85,15.48l-1.09-15.48s-3.9,5.88-7.1,7.74c0,0-.51,11.13,6.84,23.47,0,0,10.55-10.68,9.91-23.28C199.2,94.64,193.25,89.9,192.49,86.71Z"/><path class="cls-1" d="M200.93,99s-2,7.48-4.22,11.38a14,14,0,0,0,1,4.35s4.67-8.06,5.88-9.79,1-1.6.51-2.62A20.25,20.25,0,0,0,200.93,99Z"/><path class="cls-1" d="M179.4,0c.92-.1,1.41,3.12,1.51,10.37S180.67,24,180.67,24a6,6,0,0,1-2.73.44s.24-5.35.24-8.13-1.41-8.37-1.41-9.93-.1-2.82,0-3.46S178,.15,179.4,0Z"/><path class="cls-1" d="M166.94,33.09s5.37-5,11.09-6.14c0,0,.51,12.62,1.53,14.92,0,0-.26-12.88,2.3-14.92a23.31,23.31,0,0,1,11,5.37s-.34,18.51-12.45,24.82C180.41,57.14,170.35,55.69,166.94,33.09Z"/><path class="cls-1" d="M180,102s-.3,12.79.43,13.88c0,0,1.75-8.7.73-13.88,0,0,3.33,11.13,5.37,14.52,0,0-3.39,8-5.56,10a26.85,26.85,0,0,1-6.14-10.17S179.67,106.72,180,102Z"/><path class="cls-1" d="M180.41,92.85a19.79,19.79,0,0,1-9.25-18.16s6.33-6.42,7.93-8.93c0,0,1.22,10.79,1.92,12.51a95.31,95.31,0,0,0,.58-12.51s6.59,7.65,8.25,9c0,0,1.85,10.3-9.18,18.1"/><path class="cls-2" d="M0,147.07H21.69v5.09H5.12v4.11H18.46v5.09H5.12v9.2H0Z"/><path class="cls-2" d="M33.5,147.07H47.33a4.84,4.84,0,0,1,4.83,4.83v13.83a4.84,4.84,0,0,1-4.83,4.83H33.5a4.79,4.79,0,0,1-4.83-4.83V151.9a4.79,4.79,0,0,1,4.83-4.83Zm.23,5.09v13.31H47V152.16Z"/><path class="cls-2" d="M61,170.56V147h5.06v18.43H84.49v5.09Z"/><path class="cls-2" d="M109,147.07h5.28v1.76l-8.38,10,8.38,10v1.76H109l-7.7-9.2h-4.6v9.2H91.63V147.07h5.09v9.2h4.6l2.94-3.49Z"/><path class="cls-2" d="M122.85,170.56V147.07h5.09v23.49Z"/><path class="cls-2" d="M153.58,162.73V147.07h5.12v23.49h-5.22l-13.21-15.72v15.72h-5.06V147.07h5.22Z"/><path class="cls-2" d="M191.06,151.9v2.22h-5.12v-2H172.63v13.31h13.31v-3.52h-5.09v-5.09h10.21v8.87a4.84,4.84,0,0,1-4.86,4.83H172.4a4.79,4.79,0,0,1-4.83-4.83V151.9a4.79,4.79,0,0,1,4.83-4.83h13.8a4.84,4.84,0,0,1,4.86,4.83Z"/><path class="cls-2" d="M221.62,147.07v5.09H205.05v4.11h13.34v5.09H205.05v4.11h16.57v5.09H199.93V147.07Z"/><path class="cls-2" d="M252.74,151.9v4.4a4.2,4.2,0,0,1-.23,1.5,4.84,4.84,0,0,1,1.14,3.07v4.86a4.84,4.84,0,0,1-4.86,4.83H230.17V147.07h17.75a4.84,4.84,0,0,1,4.83,4.83Zm-17.52.26v3.91h12.4v-3.91Zm0,9v4.31h13.31v-4.31Z"/><path class="cls-2" d="M285.89,151.93V158a4.62,4.62,0,0,1-1.44,3.41,4.7,4.7,0,0,1-3.43,1.42h-.23l5.09,6v1.73h-5.22l-6.49-7.73-6.72,0q.1,0,.1.2a.13.13,0,0,1-.1,0v7.54H262.4V147.1H281a4.7,4.7,0,0,1,3.43,1.42A4.62,4.62,0,0,1,285.89,151.93Zm-18.43.23v5.58h13.31v-5.58Z"/><path class="cls-2" d="M316.32,147.07v5.09H299.75v4.11h13.34v5.09H299.75v4.11h16.57v5.09H294.63V147.07Z"/><path class="cls-2" d="M354.65,147.07H360l-8.55,23.49h-3.88L342,155.45l-2.09,5.74-3.43,9.36h-3.88l-8.55-23.49h5.38l5.12,14,.82-2.19,4.31-11.81h4.66l5.15,14,.82-2.19Z"/></g></g></svg>