<svg id="Layer_1" data-name="Layer 1" xmlns="http://www.w3.org/2000/svg" viewBox="0 0 2368.26 1122"><defs><style>.cls-1{fill:#009444;}.cls-2{fill:#fff;}</style></defs><title>logo-folkingebrew</title><path class="cls-1" d="M1375.71,260.78s-42.33,28.37-46.68,31.58-15.1,1.83-27.23-3.66-27.23-11.16-43-11.16-44,14.09-78.31,52.3c0,0,17.67-88.5,88.15-88.5,31.35,0,71.93,16,79.4,18.08C1352,260.51,1375.71,260.78,1375.71,260.78Z" transform="translate(-233.19 -89.17)"/><path class="cls-1" d="M1317.37,311.88s-58.34,9.54-97.61,73.49c0,0,7.85-65.64,76.86-84.15,0,0-16.27-10.1-28-10.1s-38.71,2.24-79.1,44.88S1162,437,1165.9,456.06s20.2,52.73,35.9,65.64c0,0,63.39-56.66,90.32-129.59,15.15-35.34,28.61-48.25,28.61-48.25S1320.73,315.25,1317.37,311.88Z" transform="translate(-233.19 -89.17)"/><path class="cls-1" d="M1317.51,381.87s-40,69.84-45.86,77.84-8,7.57-8,12.2,28.19,90.88,83.73,99.3c0,0,52.17-63.53,59.75-73.63s9.26-14.31,0-21-58.06-41.23-75.73-92.14c0,0-5.89,72.79,0,90.46C1331.39,474.85,1311.2,434.88,1317.51,381.87Z" transform="translate(-233.19 -89.17)"/><path class="cls-1" d="M1261.13,506.83s10.52,25.24,27.77,45.44c0,0-16,43.34,4.21,74.89,0,0,.42-41.23,7.57-64.37l30.71,19.78c5.89,3.79,8.43,13,7.16,38.29s-20.62,61.43-42.5,71.95c0,0-53.86-16.41-58.06-77.42S1261.13,506.83,1261.13,506.83Z" transform="translate(-233.19 -89.17)"/><path class="cls-1" d="M1174.87,506.83a81.66,81.66,0,0,0,17.39,24.68s-4.77,25,4.49,44.6c0,0,.28-32.82,4.77-40.67,0,0,34.46-30,39.25-34.5s8.44-.56,3.39,9-17.39,50.21-18.79,85.27-28.61,58.34-28.61,58.34-27.77-35.62-30.29-89.2C1166.46,541.89,1174.87,506.83,1174.87,506.83Z" transform="translate(-233.19 -89.17)"/><path class="cls-1" d="M1250.61,672.32s-2.52,22.72,2.8,33.66c-.73-1.72,1.4-21,3.65-25.81,0,0,12.9,11.22,19.35,15.71s4.49,11.22,3.65,16.83-3.93,28.33-36.75,53.58c0,0-16.27-35.9-18-87.8,0-22.16,2.8-43.2,5.89-49.37A182.52,182.52,0,0,0,1250.61,672.32Z" transform="translate(-233.19 -89.17)"/><path class="cls-1" d="M1343.59,659.56s2.1,87.94,12.2,101.82l7.15-101.82s25.67,38.71,46.7,50.91c0,0,3.37,73.21-45,154.41,0,0-69.42-70.26-65.22-153.15C1299.42,711.73,1338.55,680.6,1343.59,659.56Z" transform="translate(-233.19 -89.17)"/><path class="cls-1" d="M1288.06,740.34s13.46,49.23,27.77,74.89a92.36,92.36,0,0,1-6.73,28.61s-30.71-53-38.71-64.37-6.73-10.52-3.37-17.25S1288.06,740.34,1288.06,740.34Z" transform="translate(-233.19 -89.17)"/><path class="cls-1" d="M1460.62,260.78s42.33,28.37,46.68,31.58,15.1,1.83,27.23-3.66,27.23-11.16,43-11.16,44,14.09,78.31,52.3c0,0-17.67-88.5-88.15-88.5-31.35,0-71.93,16-79.4,18.08C1484.34,260.51,1460.62,260.78,1460.62,260.78Z" transform="translate(-233.19 -89.17)"/><path class="cls-1" d="M1517.28,311s58.34,9.54,97.61,73.49c0,0-7.85-65.64-76.86-84.15,0,0,16.27-10.1,28-10.1s38.71,2.24,79.1,44.88,27.49,101,23.56,120.05-20.2,52.73-35.9,65.64c0,0-63.39-56.66-90.32-129.59-15.15-35.34-28.61-48.25-28.61-48.25S1513.92,314.41,1517.28,311Z" transform="translate(-233.19 -89.17)"/><path class="cls-1" d="M1518.82,381.87s40,69.84,45.86,77.84,8,7.57,8,12.2-28.19,90.88-83.73,99.3c0,0-52.17-63.53-59.75-73.63s-9.26-14.31,0-21,58.06-41.23,75.73-92.14c0,0,5.89,72.79,0,90.46C1504.94,474.85,1525.14,434.88,1518.82,381.87Z" transform="translate(-233.19 -89.17)"/><path class="cls-1" d="M1575.21,506.83s-10.52,25.24-27.77,45.44c0,0,16,43.34-4.21,74.89,0,0-.42-41.23-7.57-64.37l-30.71,19.78c-5.89,3.79-8.43,13-7.16,38.29s20.62,61.43,42.5,71.95c0,0,53.86-16.41,58.06-77.42S1575.21,506.83,1575.21,506.83Z" transform="translate(-233.19 -89.17)"/><path class="cls-1" d="M1662.3,505.15a81.66,81.66,0,0,1-17.39,24.68s4.77,25-4.49,44.6c0,0-.28-32.82-4.77-40.67,0,0-34.46-30-39.25-34.5s-8.44-.56-3.39,9,17.39,50.21,18.79,85.27,28.61,58.34,28.61,58.34,27.77-35.62,30.29-89.2C1670.71,540.21,1662.3,505.15,1662.3,505.15Z" transform="translate(-233.19 -89.17)"/><path class="cls-1" d="M1585.72,672.32s2.52,22.72-2.8,33.66c.73-1.72-1.4-21-3.65-25.81,0,0-12.9,11.22-19.35,15.71s-4.49,11.22-3.65,16.83S1560.2,741,1593,766.29c0,0,16.27-35.9,18-87.8,0-22.16-2.8-43.2-5.89-49.37A182.52,182.52,0,0,1,1585.72,672.32Z" transform="translate(-233.19 -89.17)"/><path class="cls-1" d="M1499.47,659.56s-2.1,87.94-12.2,101.82l-7.15-101.82s-25.67,38.71-46.7,50.91c0,0-3.37,73.21,45,154.41,0,0,69.42-70.26,65.22-153.15C1543.65,711.73,1504.52,680.6,1499.47,659.56Z" transform="translate(-233.19 -89.17)"/><path class="cls-1" d="M1555,740.34s-13.46,49.23-27.77,74.89a92.36,92.36,0,0,0,6.73,28.61s30.71-53,38.71-64.37,6.73-10.52,3.37-17.25S1555,740.34,1555,740.34Z" transform="translate(-233.19 -89.17)"/><path class="cls-1" d="M1413.41,89.18c6.05-.63,9.29,20.49,9.93,68.21s-1.6,89.34-1.6,89.34-6.08,3.2-17.93,2.88c0,0,1.6-35.22,1.6-53.48s-9.29-55.08-9.29-65.32-.64-18.57,0-22.74S1404.12,90.14,1413.41,89.18Z" transform="translate(-233.19 -89.17)"/><path class="cls-1" d="M1331.39,306.83s35.34-33.1,72.93-40.39c0,0,3.37,83,10.1,98.17,0,0-1.68-84.71,15.15-98.17,0,0,35.9,4.49,72.37,35.34,0,0-2.26,121.74-81.91,163.25C1420,465,1353.83,455.5,1331.39,306.83Z" transform="translate(-233.19 -89.17)"/><path class="cls-1" d="M1417.23,760.12s-2,84.15,2.8,91.3c0,0,11.51-57.22,4.78-91.3,0,0,21.88,73.21,35.34,95.51,0,0-22.3,52.59-36.61,65.64,0,0-25.67-24-40.39-66.9C1383.14,854.37,1415.12,791.25,1417.23,760.12Z" transform="translate(-233.19 -89.17)"/><path class="cls-1" d="M1420,700s-65.91-36.61-60.86-119.49c0,0,41.65-42.22,52.17-58.76,0,0,8,71,12.62,82.33,0,0,5.89-54.42,3.79-82.33,0,0,43.34,50.35,54.28,59.19,0,0,12.2,67.74-60.38,119.07" transform="translate(-233.19 -89.17)"/><path class="cls-2" d="M233.19,1056.66H375.9v33.48h-109v27h87.77v33.48H266.89v60.52H233.19Z" transform="translate(-233.19 -89.17)"/><path class="cls-2" d="M453.58,1056.66h91a31.87,31.87,0,0,1,31.76,31.76v91a31.87,31.87,0,0,1-31.76,31.76h-91a31.51,31.51,0,0,1-31.76-31.76v-91a31.51,31.51,0,0,1,31.76-31.76Zm1.5,33.48v87.55h87.56v-87.55Z" transform="translate(-233.19 -89.17)"/><path class="cls-2" d="M634.48,1211.17V1056.44h33.26v121.25H789v33.48Z" transform="translate(-233.19 -89.17)"/><path class="cls-2" d="M950.37,1056.66h34.76v11.59L930,1133.91l55.15,65.67v11.59H950.37l-50.64-60.52H869.47v60.52H836V1056.66h33.48v60.52h30.26l19.31-23Z" transform="translate(-233.19 -89.17)"/><path class="cls-2" d="M1041.36,1211.17V1056.66h33.48v154.51Z" transform="translate(-233.19 -89.17)"/><path class="cls-2" d="M1243.5,1159.67v-103h33.69v154.51h-34.34l-86.91-103.44v103.44h-33.26V1056.66H1157Z" transform="translate(-233.19 -89.17)"/><path class="cls-2" d="M1490.07,1088.42V1103h-33.69v-12.88h-87.55v87.55h87.55v-23.18H1422.9V1121h67.17v58.37a31.87,31.87,0,0,1-32,31.76h-90.77a31.51,31.51,0,0,1-31.76-31.76v-91a31.51,31.51,0,0,1,31.76-31.76h90.77a31.87,31.87,0,0,1,32,31.76Z" transform="translate(-233.19 -89.17)"/><path class="cls-2" d="M1691.15,1056.66v33.48h-109v27h87.77v33.48h-87.77v27h109v33.48H1548.44V1056.66Z" transform="translate(-233.19 -89.17)"/><path class="cls-2" d="M1895.87,1088.42v29a27.6,27.6,0,0,1-1.5,9.87q7.51,9.45,7.51,20.17v32a31.87,31.87,0,0,1-32,31.76H1747.37V1056.66h116.74a31.87,31.87,0,0,1,31.76,31.76Zm-115.24,1.72v25.75h81.55v-25.75Zm0,59.23v28.33h87.56v-28.33Z" transform="translate(-233.19 -89.17)"/><path class="cls-2" d="M2113.9,1088.63v39.91a30.41,30.41,0,0,1-9.44,22.43,30.94,30.94,0,0,1-22.53,9.33h-1.5l33.48,39.49v11.37h-34.34l-42.7-50.86-44.21.21q.64,0,.64,1.29a.86.86,0,0,1-.64-.21v49.57h-33.26V1056.87h122.54a30.94,30.94,0,0,1,22.53,9.33A30.41,30.41,0,0,1,2113.9,1088.63Zm-121.25,1.5v36.7h87.56v-36.7Z" transform="translate(-233.19 -89.17)"/><path class="cls-2" d="M2314.11,1056.66v33.48h-109v27h87.77v33.48H2205.1v27h109v33.48H2171.41V1056.66Z" transform="translate(-233.19 -89.17)"/><path class="cls-2" d="M2566.26,1056.66h35.19l-56.22,154.51H2519.7l-36.48-99.36-13.73,37.77-22.53,61.59h-25.54l-56.22-154.51h35.41l33.69,92.06,5.36-14.38,28.33-77.68h30.69l33.91,92.06,5.36-14.38Z" transform="translate(-233.19 -89.17)"/></svg>